<svg width="62" height="54" viewBox="0 0 62 54" fill="none" xmlns="http://www.w3.org/2000/svg">
<path fill-rule="evenodd" clip-rule="evenodd" d="M56.9999 1H4.99988C2.79074 1 0.999878 2.79086 0.999878 5V49C0.999878 51.2091 2.79074 53 4.99988 53H56.9999C59.209 53 60.9999 51.2091 60.9999 49V5C60.9999 2.79086 59.209 1 56.9999 1ZM4.99988 0C2.23845 0 -0.00012207 2.23858 -0.00012207 5V49C-0.00012207 51.7614 2.23845 54 4.99988 54H56.9999C59.7613 54 61.9999 51.7614 61.9999 49V5C61.9999 2.23858 59.7613 0 56.9999 0H4.99988Z" fill="#AAB2C2"/>
<path fill-rule="evenodd" clip-rule="evenodd" d="M38.0991 10.4469C36.561 11.994 36.4405 12.1431 36.2357 12.7533C35.8972 13.7616 36.0489 14.7673 36.6702 15.6344C36.773 15.7779 38.5567 17.5908 40.6339 19.663C44.7516 23.7708 44.5855 23.6224 45.3384 23.8653C46.0317 24.0889 46.9408 23.9951 47.6044 23.6315C48.0612 23.3812 48.3046 23.1647 49.6842 21.7812L50.9999 20.4619L45.5825 15.0451L43.8688 16.7651L43.1704 16.0708L44.8886 14.351L39.5376 9L38.0991 10.4469ZM28.6308 25.8688L28.9826 26.9714C29.3143 28.0111 29.9812 30.1141 30.8701 32.9236C31.0858 33.6054 31.2709 34.1722 31.2814 34.1831C31.3078 34.2107 42.0836 23.4305 42.0836 23.3764C42.0836 23.3524 40.8553 22.1046 39.3542 20.6036L36.6248 17.8744L28.6308 25.8688ZM26.7961 27.7033L26.2376 28.2631L26.3047 28.4947C26.3693 28.7178 26.4767 29.0567 27.4047 31.9667C27.6374 32.6964 28.0581 34.0236 28.3397 34.916C28.6214 35.8085 28.8644 36.5514 28.8797 36.5667C28.8951 36.5821 29.1595 36.3434 29.4673 36.0363C29.9824 35.5224 30.024 35.4689 29.9905 35.3643C29.9705 35.3017 29.7946 34.7417 29.5996 34.1197C29.4046 33.4977 29.1504 32.6953 29.0346 32.3364C28.4616 30.5604 27.4259 27.2754 27.4259 27.2342C27.4259 27.1026 27.3076 27.1907 26.7961 27.7033ZM24.4133 30.0862C24.1086 30.3915 23.8593 30.6694 23.8593 30.7036C23.8593 30.7379 23.9558 31.0704 24.0737 31.4424C24.1916 31.8145 24.7602 33.6065 25.3372 35.4246C25.9143 37.2427 26.4072 38.7961 26.4328 38.8767L26.4792 39.0233L27.0395 38.4641C27.3477 38.1566 27.5999 37.8768 27.5999 37.8422C27.5999 37.8076 27.0309 35.9871 26.3356 33.7966C25.6403 31.606 25.0516 29.7501 25.0275 29.6724C25.0032 29.5946 24.9798 29.531 24.9753 29.531C24.9708 29.531 24.7179 29.7808 24.4133 30.0862ZM21.9798 32.5213L21.4282 33.0758L21.8362 34.3589C22.0606 35.0647 22.3845 36.0824 22.556 36.6207C22.7275 37.1589 22.9318 37.8048 23.01 38.056C23.0882 38.3072 23.3434 39.1097 23.5773 39.8393C23.811 40.5689 24.0116 41.2102 24.023 41.2644C24.0344 41.3186 24.0573 41.3714 24.0741 41.3817C24.0908 41.392 24.3569 41.1475 24.6653 40.8383L25.2262 40.2762L25.1114 39.9164C25.0483 39.7185 24.8178 38.989 24.5991 38.2952C24.3805 37.6015 24.1161 36.7697 24.0115 36.4467C23.9069 36.1238 23.6519 35.3213 23.4448 34.6634C22.7599 32.4878 22.589 31.9667 22.56 31.9667C22.5443 31.9667 22.2832 32.2163 21.9798 32.5213ZM18.9816 35.5224L17.8234 36.6859L17.6703 37.1426C17.5862 37.3938 17.2722 38.3137 16.9726 39.1869C16.673 40.06 16.103 41.7215 15.706 42.8791C15.3089 44.0367 14.9912 44.991 15.0001 44.9998C15.0089 45.0087 16.0419 44.665 17.2956 44.2361C19.6958 43.415 22.1231 42.5807 22.4892 42.4508C22.652 42.3931 22.7032 42.3545 22.6927 42.2973C22.685 42.2553 22.4825 41.6018 22.2427 40.8452C21.7619 39.3282 21.6592 39.0034 21.3472 38.0125C20.6122 35.6787 20.1848 34.3589 20.1639 34.3589C20.1507 34.3589 19.6187 34.8825 18.9816 35.5224Z" fill="#EA5A12"/>
</svg>
