<svg width="62" height="54" viewBox="0 0 62 54" fill="none" xmlns="http://www.w3.org/2000/svg">
<path fill-rule="evenodd" clip-rule="evenodd" d="M57 1H5C2.79086 1 1 2.79086 1 5V49C1 51.2091 2.79086 53 5 53H57C59.2091 53 61 51.2091 61 49V5C61 2.79086 59.2091 1 57 1ZM5 0C2.23858 0 0 2.23858 0 5V49C0 51.7614 2.23858 54 5 54H57C59.7614 54 62 51.7614 62 49V5C62 2.23858 59.7614 0 57 0H5Z" fill="#AAB2C2"/>
<path fill-rule="evenodd" clip-rule="evenodd" d="M15.4027 9.12727C14.8899 9.27336 14.1814 9.77363 13.7048 10.3261C12.944 11.2077 12.9813 10.3774 13.0135 25.7224L13.0425 39.555L13.2934 40.0212C13.6598 40.702 14.2103 41.2618 14.8693 41.624L15.4496 41.9429L44.9947 41.9947C46.6536 41.9976 48 40.6536 48 38.9947V15.4741C48 13.8173 46.6569 12.4741 45 12.4741H19.9902V12.0573C19.9902 11.4844 19.4335 10.4222 18.8569 9.89498C18.013 9.12325 16.5546 8.79915 15.4027 9.12727ZM18.2972 10.6804C17.9693 10.355 17.6435 10.1566 17.2452 10.0391C16.5529 9.83517 16.3741 9.83593 15.687 10.0453C14.9674 10.2647 14.2988 10.9413 14.0523 11.6997C13.8777 12.2371 13.8631 13.2009 13.8631 24.2132V36.1444L14.1093 35.9135C14.2447 35.7865 14.6016 35.5528 14.9025 35.3942C15.3838 35.1406 15.5744 35.1058 16.489 35.1057C17.6148 35.1054 18.1636 35.2922 18.814 35.8969L19.1149 36.1766V24.2366C19.1149 23.5438 19.1151 22.8888 19.1152 22.2692C19.117 12.5773 19.1172 11.5741 18.6173 10.9973C18.5596 10.9307 18.4953 10.8698 18.4234 10.8019C18.3837 10.7642 18.3416 10.7245 18.2972 10.6804ZM26.9927 15.0791V14.2108H26.1174V16.8157H26.9927V15.9474H38.3716V16.8157H39.2469V14.2108H38.3716V15.0791H26.9927ZM37.0875 20.181C35.8981 19.5003 34.4328 18.6609 33.831 18.3158C33.2292 17.9706 32.7123 17.6888 32.6822 17.6895C32.6521 17.6903 31.1621 18.5291 29.371 19.5537L26.1145 21.4165L26.1721 28.6702L28.3603 29.9152C29.5639 30.5999 31.0003 31.4249 31.5523 31.7486C32.1042 32.0722 32.611 32.3371 32.6783 32.3371C32.7457 32.3371 33.6234 31.8643 34.6288 31.2864C35.6343 30.7085 37.0724 29.8826 37.8246 29.4511L39.1922 28.6665L39.2498 21.4187L37.0875 20.181ZM42.7482 18.5524V17.6841H40.1223V18.5524H40.9976V31.5773H40.1223V32.4456H42.7482V31.5773H41.8729V18.5524H42.7482ZM34.2132 34.1823C27.0657 34.1823 26.9927 34.1801 26.9927 33.9652C26.9927 33.7601 26.9197 33.7481 25.6797 33.7481C24.4397 33.7481 24.3668 33.7601 24.3668 33.9652C24.3668 34.1702 24.2938 34.1823 23.0538 34.1823H21.7409V38.5239H23.0538C24.2938 38.5239 24.3668 38.5359 24.3668 38.741C24.3668 38.946 24.4397 38.958 25.6797 38.958C26.9197 38.958 26.9927 38.946 26.9927 38.741C26.9927 38.526 27.0647 38.5239 34.1866 38.5268L41.3805 38.5296L43.5414 37.473C44.73 36.8919 45.7023 36.3894 45.7023 36.3563C45.7023 36.3232 44.7419 35.8206 43.568 35.2392L41.4338 34.1823H34.2132Z" fill="#EA5A12"/>
<path fill-rule="evenodd" clip-rule="evenodd" d="M37.0875 20.181C35.8981 19.5003 34.4328 18.6609 33.831 18.3158C33.2292 17.9706 32.7123 17.6888 32.6822 17.6895C32.6521 17.6903 31.1621 18.5291 29.371 19.5537L26.1145 21.4165L26.1721 28.6702L28.3603 29.9152C29.5639 30.5999 31.0003 31.4249 31.5523 31.7486C32.1042 32.0722 32.611 32.3371 32.6783 32.3371C32.7457 32.3371 33.6234 31.8643 34.6288 31.2864C35.6343 30.7085 37.0724 29.8826 37.8246 29.4511L39.1922 28.6665L39.2498 21.4187L37.0875 20.181ZM27.5651 21.5713C27.5813 21.5241 28.7023 20.8511 30.0562 20.0757C31.4102 19.3003 32.5856 18.6648 32.668 18.6634C32.814 18.661 34.0263 19.3148 35.5816 20.2347C36.0029 20.4838 36.6799 20.8767 37.086 21.1079C37.4922 21.339 37.8246 21.5565 37.8246 21.5911C37.8246 21.6258 37.5415 21.8196 37.1955 22.0218C34.1398 23.807 32.8473 24.5221 32.6765 24.5221C32.4675 24.5221 27.5308 21.6722 27.5651 21.5713ZM26.9927 28.1988V25.2635C26.9927 22.5129 27.0047 22.3327 27.1842 22.3998C27.3683 22.4688 27.9934 22.8236 30.9042 24.5113L32.2445 25.2884V28.2158C32.2445 29.8259 32.2115 31.1431 32.171 31.1431C32.0946 31.1431 30.4893 30.2381 28.2783 28.9486L26.9927 28.1988ZM33.1323 25.2276L35.6699 23.7936C37.0656 23.0048 38.2444 22.3576 38.2896 22.3554C38.3348 22.3532 38.3716 23.6668 38.3716 25.2746V28.198L37.469 28.7304C35.849 29.686 33.266 31.1431 33.192 31.1431C33.1523 31.1431 33.1227 29.8122 33.1261 28.1854L33.1323 25.2276ZM34.2132 34.1823C27.0657 34.1823 26.9927 34.1801 26.9927 33.9652C26.9927 33.7601 26.9197 33.7481 25.6797 33.7481C24.4397 33.7481 24.3668 33.7601 24.3668 33.9652C24.3668 34.1702 24.2938 34.1823 23.0538 34.1823H21.7409V38.5239H23.0538C24.2938 38.5239 24.3668 38.5359 24.3668 38.741C24.3668 38.946 24.4397 38.958 25.6797 38.958C26.9197 38.958 26.9927 38.946 26.9927 38.741C26.9927 38.526 27.0647 38.5239 34.1866 38.5268L41.3805 38.5296L43.5414 37.473C44.73 36.8919 45.7023 36.3894 45.7023 36.3563C45.7023 36.3232 44.7419 35.8206 43.568 35.2392L41.4338 34.1823H34.2132ZM25.2421 38.0897V34.6164H26.1174V38.0897H25.2421ZM22.6162 37.6555V35.0506H24.3668V37.6555H22.6162ZM26.9927 35.9189V35.0506H40.9976V35.9189H26.9927ZM41.9806 37.3299C41.9174 37.3299 41.8729 36.9038 41.8729 36.2996V35.2691L42.9123 35.7813C43.484 36.063 43.9517 36.3205 43.9517 36.3534C43.9517 36.4273 42.1299 37.3299 41.9806 37.3299ZM26.9927 37.6555V36.7872H40.9976V37.6555H26.9927Z" fill="#EA5A12"/>
</svg>
