<svg width="62" height="54" viewBox="0 0 62 54" fill="none" xmlns="http://www.w3.org/2000/svg">
<path fill-rule="evenodd" clip-rule="evenodd" d="M57 1H5C2.79086 1 1 2.79086 1 5V49C1 51.2091 2.79086 53 5 53H57C59.2091 53 61 51.2091 61 49V5C61 2.79086 59.2091 1 57 1ZM5 0C2.23858 0 0 2.23858 0 5V49C0 51.7614 2.23858 54 5 54H57C59.7614 54 62 51.7614 62 49V5C62 2.23858 59.7614 0 57 0H5Z" fill="#AAB2C2"/>
<path fill-rule="evenodd" clip-rule="evenodd" d="M39.095 13.0467C39.9231 13.2274 40.6373 13.6646 41.1304 14.2927C41.4154 14.6557 45.6207 21.9139 45.7725 22.3048C46.0901 23.1226 46.0745 24.078 45.7299 24.9041C45.6586 25.0749 42.2077 31.0842 41.4333 32.3859C41.0745 32.9889 40.545 33.4792 39.9339 33.774C39.3132 34.0736 39.1651 34.0983 37.8862 34.1164L36.7669 34.1321L36.7977 33.8389C36.8752 33.1001 36.7912 32.3825 36.5502 31.7248C36.4737 31.5157 36.1381 30.8924 35.6067 29.9718C35.1531 29.1861 34.7871 28.5388 34.7935 28.5334C34.7998 28.5281 34.9484 28.5031 35.1236 28.4781C35.4964 28.4247 36.2055 28.2006 36.5507 28.027C37.0257 27.7882 37.4282 27.4933 37.8476 27.0768C38.5776 26.3518 39.0062 25.5745 39.2313 24.5674C39.3237 24.1539 39.3443 23.1845 39.2702 22.7345C38.9274 20.6526 37.2959 19.0092 35.18 18.6145C34.7203 18.5287 33.8288 18.5307 33.3985 18.6185C32.3489 18.8325 31.5009 19.2814 30.7908 19.9988C30.0515 20.7458 29.5871 21.6232 29.4025 22.6222C29.3683 22.8073 29.3341 22.9799 29.3266 23.0056C29.3158 23.0426 28.6126 23.0524 25.9731 23.0524H22.6333L22.6566 22.9495C22.7457 22.5576 22.8068 22.3643 22.9169 22.1265C23.1056 21.7187 27.1568 14.7314 27.3795 14.4296C27.8609 13.7774 28.4846 13.338 29.273 13.0958L29.5543 13.0094L34.2049 13.0019C38.068 12.9957 38.896 13.0033 39.095 13.0467ZM29.4778 24.5522C30.1937 24.6585 30.8815 25.0445 31.3071 25.5789C31.4793 25.7953 34.9328 31.7074 35.1104 32.09C35.4424 32.8055 35.4351 33.8041 35.0927 34.4924C34.9584 34.7624 31.6385 40.5021 31.4629 40.7679C31.1486 41.2436 30.5829 41.673 29.9929 41.8836L29.6668 42H21.7158L21.4533 41.9129C20.8281 41.7053 20.3024 41.3361 19.9552 40.8605C19.79 40.6343 16.3478 34.6867 16.2325 34.4283C15.969 33.838 15.9251 33.0308 16.1233 32.4233C16.2418 32.0603 16.1572 32.213 18.2092 28.6582L19.8781 25.7669L20.2532 25.3894C20.5793 25.0611 20.6747 24.9891 20.9845 24.8374C21.6445 24.5143 21.3487 24.5345 25.5413 24.5263C27.5834 24.5223 29.3548 24.534 29.4778 24.5522ZM24.6977 29.2476C24.283 29.345 23.7005 29.5979 23.3524 29.8317C21.8808 30.8202 21.1922 32.7143 21.6833 34.423C22.0104 35.561 22.8268 36.5088 23.9282 37.0292C24.4503 37.2758 24.9087 37.3845 25.5226 37.407C26.7295 37.4512 27.7522 37.0568 28.5995 36.2203C29.3658 35.4638 29.7763 34.5294 29.824 33.4333C29.8565 32.6865 29.7244 32.0589 29.3991 31.4143C28.5255 29.6835 26.6071 28.7994 24.6977 29.2476Z" fill="#EA5A12"/>
</svg>
