<svg width="204" height="42" viewBox="0 0 204 42" fill="none" xmlns="http://www.w3.org/2000/svg">
<path d="M24 33.4545L12 40L0 20L24 33.4545Z" fill="#E6E4E5"/>
<path d="M23.2071 6.34155L33 0.999985L44.81 20.3239L23.2071 6.34155Z" fill="#E6E4E5"/>
<path d="M11 26.1667L0 20L11 0.999985V26.1667Z" fill="#1A1F19"/>
<path d="M34.0086 13.3327L44.81 20.3239L34 40L34.0086 13.3327Z" fill="#1C211B"/>
<path d="M11 13V0.999985H33L11 13Z" fill="#089AE4"/>
<path d="M34 28V40H12L34 28Z" fill="#089AE4"/>
<path d="M11 26.1667L0 20L11 0.999985V26.1667Z" fill="#1A1F19"/>
<path d="M34.0086 13.3327L44.81 20.3239L34 40L34.0086 13.3327Z" fill="#1C211B"/>
<path d="M56.986 3.59398C57.9493 2.77798 59.1337 2.13765 60.539 1.67298C61.9557 1.19698 63.4857 0.958984 65.129 0.958984C66.523 0.958984 67.781 1.12332 68.903 1.45198C70.0363 1.76932 70.9997 2.21699 71.793 2.79499C72.5863 3.37299 73.1927 4.06998 73.612 4.88598C74.0427 5.69065 74.258 6.58032 74.258 7.55498C74.258 8.66565 74.0143 9.69698 73.527 10.649C73.051 11.5897 72.2973 12.3717 71.266 12.995C71.7873 13.267 72.269 13.5843 72.711 13.947C73.153 14.2983 73.527 14.6893 73.833 15.12C74.1503 15.5393 74.394 15.9983 74.564 16.497C74.7453 16.9843 74.836 17.5057 74.836 18.061C74.836 19.2057 74.6207 20.2767 74.19 21.274C73.7707 22.26 73.153 23.1213 72.337 23.858C71.521 24.5947 70.518 25.1783 69.328 25.609C68.138 26.0283 66.778 26.238 65.248 26.238C64.398 26.238 63.5423 26.1587 62.681 26C61.8197 25.8413 60.9867 25.6203 60.182 25.337C59.3887 25.0423 58.6407 24.6967 57.938 24.3C57.2467 23.9033 56.6347 23.4613 56.102 22.974L57.802 20.288C57.938 20.0953 58.1137 19.9367 58.329 19.812C58.5557 19.676 58.7993 19.608 59.06 19.608C59.4113 19.608 59.774 19.7157 60.148 19.931C60.522 20.1463 60.947 20.3843 61.423 20.645C61.9103 20.9057 62.477 21.1437 63.123 21.359C63.769 21.5743 64.534 21.682 65.418 21.682C66.0527 21.682 66.6193 21.6253 67.118 21.512C67.6167 21.3873 68.036 21.189 68.376 20.917C68.7273 20.645 68.9937 20.2937 69.175 19.863C69.3563 19.4323 69.447 18.9053 69.447 18.282C69.447 17.7947 69.3393 17.364 69.124 16.99C68.92 16.616 68.6253 16.3043 68.24 16.055C67.866 15.7943 67.4127 15.6017 66.88 15.477C66.3587 15.3523 65.7807 15.2957 65.146 15.307H61.542L61.525 10.853H64.67C66.098 10.853 67.1577 10.615 67.849 10.139C68.5403 9.65165 68.886 8.94898 68.886 8.03098C68.886 7.24898 68.5687 6.63132 67.934 6.17799C67.2993 5.71332 66.3473 5.48098 65.078 5.48098C64.3413 5.48098 63.6953 5.56598 63.14 5.73598C62.596 5.89465 62.1087 6.07598 61.678 6.27998C61.2587 6.48398 60.8847 6.67098 60.556 6.84098C60.2387 6.99965 59.944 7.07898 59.672 7.07898C59.3773 7.07898 59.1337 7.01098 58.941 6.87499C58.7597 6.73898 58.584 6.53498 58.414 6.26299L56.986 3.59398Z" fill="#00050A"/>
<path d="M106.198 1.23098V26H101.132V11.754C101.132 11.4253 101.138 11.0683 101.149 10.683C101.172 10.2977 101.206 9.90665 101.251 9.50998L94.6721 22.243C94.4681 22.6397 94.1904 22.94 93.8391 23.144C93.4991 23.348 93.1081 23.45 92.6661 23.45H91.8841C91.4421 23.45 91.0454 23.348 90.6941 23.144C90.3541 22.94 90.0821 22.6397 89.8781 22.243L83.2991 9.47598C83.3331 9.88398 83.3614 10.2863 83.3841 10.683C83.4067 11.0683 83.4181 11.4253 83.4181 11.754V26H78.3521V1.23098H82.7381C82.9874 1.23098 83.2027 1.23665 83.3841 1.24798C83.5767 1.25932 83.7467 1.29332 83.8941 1.34998C84.0414 1.40665 84.1717 1.49732 84.2851 1.62198C84.4097 1.73532 84.5287 1.89965 84.6421 2.11498L91.0171 14.678C91.2437 15.1087 91.4591 15.5563 91.6631 16.021C91.8784 16.4857 92.0824 16.9617 92.2751 17.449C92.4677 16.9503 92.6661 16.463 92.8701 15.987C93.0854 15.511 93.3121 15.0577 93.5501 14.627L99.9081 2.11498C100.021 1.89965 100.135 1.73532 100.248 1.62198C100.373 1.49732 100.509 1.40665 100.656 1.34998C100.803 1.29332 100.968 1.25932 101.149 1.24798C101.342 1.23665 101.563 1.23098 101.812 1.23098H106.198Z" fill="#00050A"/>
<path d="M132.615 1.23098V26H126.835V12.128C126.835 11.482 126.852 10.802 126.886 10.088C126.931 9.36265 127.01 8.59199 127.124 7.77598C126.863 8.50132 126.58 9.17565 126.274 9.79898C125.968 10.411 125.667 10.9493 125.373 11.414L117.842 24.283C117.717 24.487 117.564 24.691 117.383 24.895C117.213 25.099 117.02 25.286 116.805 25.456C116.589 25.6147 116.357 25.745 116.108 25.847C115.858 25.949 115.598 26 115.326 26H110.991V1.23098H116.771V15.086C116.771 15.732 116.754 16.4177 116.72 17.143C116.686 17.857 116.606 18.622 116.482 19.438C116.742 18.724 117.026 18.061 117.332 17.449C117.638 16.8257 117.938 16.2817 118.233 15.817L125.764 2.94798C125.888 2.74398 126.036 2.53998 126.206 2.33598C126.387 2.13198 126.585 1.95065 126.801 1.79198C127.016 1.62198 127.248 1.48598 127.498 1.38398C127.747 1.28198 128.008 1.23098 128.28 1.23098H132.615Z" fill="#00050A"/>
<path d="M56.39 33.45C56.67 33.21 57.0017 33.0233 57.385 32.89C57.7717 32.7567 58.2 32.69 58.67 32.69C59.06 32.69 59.4117 32.7367 59.725 32.83C60.0417 32.9233 60.31 33.055 60.53 33.225C60.75 33.3916 60.9183 33.5917 61.035 33.825C61.155 34.055 61.215 34.3083 61.215 34.585C61.215 34.925 61.1367 35.2333 60.98 35.51C60.8267 35.7833 60.5933 36.005 60.28 36.175C60.4467 36.255 60.5983 36.35 60.735 36.46C60.875 36.5667 60.9933 36.6867 61.09 36.82C61.19 36.95 61.2667 37.0917 61.32 37.245C61.3767 37.3983 61.405 37.5617 61.405 37.735C61.405 38.0617 61.3433 38.3667 61.22 38.65C61.1 38.9333 60.9233 39.18 60.69 39.39C60.46 39.6 60.1767 39.7667 59.84 39.89C59.5033 40.01 59.1183 40.07 58.685 40.07C58.4317 40.07 58.1833 40.0467 57.94 40C57.7 39.9567 57.47 39.8933 57.25 39.81C57.03 39.7267 56.8233 39.6267 56.63 39.51C56.4367 39.3933 56.265 39.2633 56.115 39.12L56.51 38.475C56.5467 38.4283 56.59 38.39 56.64 38.36C56.6933 38.3267 56.7517 38.31 56.815 38.31C56.9017 38.31 56.9967 38.345 57.1 38.415C57.2033 38.4817 57.3283 38.5567 57.475 38.64C57.6217 38.7233 57.795 38.8 57.995 38.87C58.1983 38.9367 58.4417 38.97 58.725 38.97C59.175 38.97 59.5233 38.8733 59.77 38.68C60.0167 38.4867 60.14 38.19 60.14 37.79C60.14 37.6267 60.1067 37.48 60.04 37.35C59.9733 37.22 59.8783 37.11 59.755 37.02C59.6317 36.93 59.4817 36.8617 59.305 36.815C59.1317 36.765 58.9383 36.74 58.725 36.74H57.705L57.7 35.66H58.63C59.0467 35.66 59.3717 35.5783 59.605 35.415C59.8417 35.2483 59.96 35.0083 59.96 34.695C59.96 34.4183 59.8483 34.1983 59.625 34.035C59.405 33.8683 59.085 33.785 58.665 33.785C58.4217 33.785 58.2117 33.8117 58.035 33.865C57.8617 33.9183 57.71 33.9767 57.58 34.04C57.4533 34.1 57.345 34.1567 57.255 34.21C57.1683 34.2633 57.09 34.29 57.02 34.29C56.9533 34.29 56.8967 34.2733 56.85 34.24C56.8033 34.2067 56.76 34.1567 56.72 34.09L56.39 33.45Z" fill="#585858"/>
<path d="M66.401 37.27L65.521 34.865C65.4777 34.7583 65.4327 34.6317 65.386 34.485C65.3394 34.3383 65.2927 34.18 65.246 34.01C65.2027 34.18 65.1577 34.34 65.111 34.49C65.0643 34.6367 65.0193 34.765 64.976 34.875L64.101 37.27H66.401ZM68.776 40H67.736C67.6193 40 67.5244 39.9717 67.451 39.915C67.3777 39.855 67.3227 39.7817 67.286 39.695L66.746 38.22H63.751L63.211 39.695C63.1843 39.7717 63.1327 39.8417 63.056 39.905C62.9793 39.9683 62.8827 40 62.766 40H61.721L64.561 32.77H65.936L68.776 40Z" fill="#585858"/>
<path d="M72.2151 38.95C72.4651 38.95 72.6751 38.92 72.8451 38.86C73.0151 38.8 73.1501 38.72 73.2501 38.62C73.3534 38.52 73.4267 38.4033 73.4701 38.27C73.5167 38.1367 73.5401 37.995 73.5401 37.845C73.5401 37.6883 73.5151 37.5483 73.4651 37.425C73.4151 37.2983 73.3367 37.1917 73.2301 37.105C73.1234 37.015 72.9851 36.9467 72.8151 36.9C72.6484 36.8533 72.4467 36.83 72.2101 36.83H70.8551V38.95H72.2151ZM70.8551 33.81V35.9H71.9251C72.3851 35.9 72.7317 35.8167 72.9651 35.65C73.2017 35.4833 73.3201 35.2183 73.3201 34.855C73.3201 34.4783 73.2134 34.21 73.0001 34.05C72.7867 33.89 72.4534 33.81 72.0001 33.81H70.8551ZM72.0001 32.77C72.4734 32.77 72.8784 32.815 73.2151 32.905C73.5517 32.995 73.8267 33.1233 74.0401 33.29C74.2567 33.4567 74.4151 33.6583 74.5151 33.895C74.6151 34.1317 74.6651 34.3983 74.6651 34.695C74.6651 34.865 74.6401 35.0283 74.5901 35.185C74.5401 35.3383 74.4617 35.4833 74.3551 35.62C74.2517 35.7533 74.1184 35.875 73.9551 35.985C73.7951 36.095 73.6034 36.1883 73.3801 36.265C74.3734 36.4883 74.8701 37.025 74.8701 37.875C74.8701 38.1817 74.8117 38.465 74.6951 38.725C74.5784 38.985 74.4084 39.21 74.1851 39.4C73.9617 39.5867 73.6867 39.7333 73.3601 39.84C73.0334 39.9467 72.6601 40 72.2401 40H69.5101V32.77H72.0001Z" fill="#585858"/>
<path d="M82.9871 36.385C82.9871 36.915 82.8988 37.4067 82.7221 37.86C82.5488 38.31 82.3021 38.7 81.9821 39.03C81.6621 39.36 81.2771 39.6183 80.8271 39.805C80.3771 39.9883 79.8771 40.08 79.3271 40.08C78.7804 40.08 78.2821 39.9883 77.8321 39.805C77.3821 39.6183 76.9954 39.36 76.6721 39.03C76.3521 38.7 76.1038 38.31 75.9271 37.86C75.7504 37.4067 75.6621 36.915 75.6621 36.385C75.6621 35.855 75.7504 35.365 75.9271 34.915C76.1038 34.4617 76.3521 34.07 76.6721 33.74C76.9954 33.41 77.3821 33.1533 77.8321 32.97C78.2821 32.7833 78.7804 32.69 79.3271 32.69C79.6938 32.69 80.0388 32.7333 80.3621 32.82C80.6854 32.9033 80.9821 33.0233 81.2521 33.18C81.5221 33.3333 81.7638 33.5217 81.9771 33.745C82.1938 33.965 82.3771 34.2117 82.5271 34.485C82.6771 34.7583 82.7904 35.055 82.8671 35.375C82.9471 35.695 82.9871 36.0317 82.9871 36.385ZM81.6121 36.385C81.6121 35.9883 81.5588 35.6333 81.4521 35.32C81.3454 35.0033 81.1938 34.735 80.9971 34.515C80.8004 34.295 80.5604 34.1266 80.2771 34.01C79.9971 33.8933 79.6804 33.835 79.3271 33.835C78.9738 33.835 78.6554 33.8933 78.3721 34.01C78.0921 34.1266 77.8521 34.295 77.6521 34.515C77.4554 34.735 77.3038 35.0033 77.1971 35.32C77.0904 35.6333 77.0371 35.9883 77.0371 36.385C77.0371 36.7817 77.0904 37.1383 77.1971 37.455C77.3038 37.7683 77.4554 38.035 77.6521 38.255C77.8521 38.4717 78.0921 38.6383 78.3721 38.755C78.6554 38.8717 78.9738 38.93 79.3271 38.93C79.6804 38.93 79.9971 38.8717 80.2771 38.755C80.5604 38.6383 80.8004 38.4717 80.9971 38.255C81.1938 38.035 81.3454 37.7683 81.4521 37.455C81.5588 37.1383 81.6121 36.7817 81.6121 36.385Z" fill="#585858"/>
<path d="M88.4844 38.965V33.805H86.5094C86.4694 34.515 86.4144 35.145 86.3444 35.695C86.2777 36.245 86.1994 36.7283 86.1094 37.145C86.0194 37.5617 85.9194 37.9183 85.8094 38.215C85.6994 38.5117 85.581 38.7617 85.4544 38.965H88.4844ZM90.9594 38.965V41.335C90.9594 41.4517 90.9194 41.545 90.8394 41.615C90.7627 41.685 90.661 41.72 90.5344 41.72H89.7244V40H84.4144V41.335C84.4144 41.4517 84.3744 41.545 84.2944 41.615C84.2177 41.685 84.116 41.72 83.9894 41.72H83.1794V38.965H83.9694C84.0627 38.915 84.1544 38.835 84.2444 38.725C84.3377 38.615 84.4277 38.46 84.5144 38.26C84.601 38.06 84.6827 37.8067 84.7594 37.5C84.8394 37.1933 84.911 36.82 84.9744 36.38C85.0377 35.9367 85.091 35.4183 85.1344 34.825C85.181 34.2317 85.216 33.5467 85.2394 32.77H89.8344V38.965H90.9594Z" fill="#585858"/>
<path d="M102.262 32.77V40H101.077V35.33C101.077 35.1433 101.087 34.9416 101.107 34.725L98.9222 38.83C98.8189 39.0267 98.6605 39.125 98.4472 39.125H98.2572C98.0439 39.125 97.8855 39.0267 97.7822 38.83L95.5722 34.71C95.5822 34.82 95.5905 34.9283 95.5972 35.035C95.6039 35.1417 95.6072 35.24 95.6072 35.33V40H94.4222V32.77H95.4372C95.4972 32.77 95.5489 32.7717 95.5922 32.775C95.6355 32.7783 95.6739 32.7867 95.7072 32.8C95.7439 32.8133 95.7755 32.835 95.8022 32.865C95.8322 32.895 95.8605 32.935 95.8872 32.985L98.0522 37C98.1089 37.1067 98.1605 37.2167 98.2072 37.33C98.2572 37.4433 98.3055 37.56 98.3522 37.68C98.3989 37.5567 98.4472 37.4383 98.4972 37.325C98.5472 37.2083 98.6005 37.0967 98.6572 36.99L100.792 32.985C100.819 32.935 100.847 32.895 100.877 32.865C100.907 32.835 100.939 32.8133 100.972 32.8C101.009 32.7867 101.049 32.7783 101.092 32.775C101.136 32.7717 101.187 32.77 101.247 32.77H102.262Z" fill="#585858"/>
<path d="M105.225 33.84V35.845H107.755V36.88H105.225V38.925H108.435V40H103.875V32.77H108.435V33.84H105.225Z" fill="#585858"/>
<path d="M114.677 33.875H112.497V40H111.152V33.875H108.972V32.77H114.677V33.875Z" fill="#585858"/>
<path d="M121.718 32.77V40H120.368V35.47C120.368 35.3 120.372 35.1217 120.378 34.935C120.388 34.7483 120.408 34.55 120.438 34.34C120.372 34.5267 120.298 34.7 120.218 34.86C120.142 35.0167 120.067 35.155 119.993 35.275L117.228 39.585C117.198 39.635 117.162 39.685 117.118 39.735C117.078 39.785 117.033 39.83 116.983 39.87C116.933 39.9067 116.878 39.9383 116.818 39.965C116.758 39.9883 116.697 40 116.633 40H115.623V32.77H116.973V37.3C116.973 37.47 116.968 37.65 116.958 37.84C116.952 38.0267 116.933 38.225 116.903 38.435C116.97 38.2483 117.042 38.075 117.118 37.915C117.198 37.755 117.277 37.615 117.353 37.495L120.113 33.185C120.143 33.135 120.178 33.085 120.218 33.035C120.262 32.985 120.308 32.9417 120.358 32.905C120.408 32.865 120.462 32.8333 120.518 32.81C120.578 32.7833 120.642 32.77 120.708 32.77H121.718Z" fill="#585858"/>
<path d="M122.913 33.45C123.193 33.21 123.525 33.0233 123.908 32.89C124.295 32.7567 124.723 32.69 125.193 32.69C125.583 32.69 125.935 32.7367 126.248 32.83C126.565 32.9233 126.833 33.055 127.053 33.225C127.273 33.3916 127.442 33.5917 127.558 33.825C127.678 34.055 127.738 34.3083 127.738 34.585C127.738 34.925 127.66 35.2333 127.503 35.51C127.35 35.7833 127.117 36.005 126.803 36.175C126.97 36.255 127.122 36.35 127.258 36.46C127.398 36.5667 127.517 36.6867 127.613 36.82C127.713 36.95 127.79 37.0917 127.843 37.245C127.9 37.3983 127.928 37.5617 127.928 37.735C127.928 38.0617 127.867 38.3667 127.743 38.65C127.623 38.9333 127.447 39.18 127.213 39.39C126.983 39.6 126.7 39.7667 126.363 39.89C126.027 40.01 125.642 40.07 125.208 40.07C124.955 40.07 124.707 40.0467 124.463 40C124.223 39.9567 123.993 39.8933 123.773 39.81C123.553 39.7267 123.347 39.6267 123.153 39.51C122.96 39.3933 122.788 39.2633 122.638 39.12L123.033 38.475C123.07 38.4283 123.113 38.39 123.163 38.36C123.217 38.3267 123.275 38.31 123.338 38.31C123.425 38.31 123.52 38.345 123.623 38.415C123.727 38.4817 123.852 38.5567 123.998 38.64C124.145 38.7233 124.318 38.8 124.518 38.87C124.722 38.9367 124.965 38.97 125.248 38.97C125.698 38.97 126.047 38.8733 126.293 38.68C126.54 38.4867 126.663 38.19 126.663 37.79C126.663 37.6267 126.63 37.48 126.563 37.35C126.497 37.22 126.402 37.11 126.278 37.02C126.155 36.93 126.005 36.8617 125.828 36.815C125.655 36.765 125.462 36.74 125.248 36.74H124.228L124.223 35.66H125.153C125.57 35.66 125.895 35.5783 126.128 35.415C126.365 35.2483 126.483 35.0083 126.483 34.695C126.483 34.4183 126.372 34.1983 126.148 34.035C125.928 33.8683 125.608 33.785 125.188 33.785C124.945 33.785 124.735 33.8117 124.558 33.865C124.385 33.9183 124.233 33.9767 124.103 34.04C123.977 34.1 123.868 34.1567 123.778 34.21C123.692 34.2633 123.613 34.29 123.543 34.29C123.477 34.29 123.42 34.2733 123.373 34.24C123.327 34.2067 123.283 34.1567 123.243 34.09L122.913 33.45Z" fill="#585858"/>
<path d="M135.234 32.77V40H133.884V36.84H130.489V40H129.139V32.77H130.489V35.88H133.884V32.77H135.234Z" fill="#585858"/>
<path d="M139.364 38.95C139.614 38.95 139.822 38.9233 139.989 38.87C140.159 38.8133 140.296 38.7367 140.399 38.64C140.502 38.5433 140.576 38.43 140.619 38.3C140.662 38.17 140.684 38.03 140.684 37.88C140.684 37.7167 140.662 37.5683 140.619 37.435C140.576 37.3017 140.502 37.19 140.399 37.1C140.296 37.0066 140.161 36.935 139.994 36.885C139.827 36.835 139.619 36.81 139.369 36.81H138.189V38.95H139.364ZM139.369 35.76C139.839 35.76 140.241 35.8117 140.574 35.915C140.911 36.0183 141.184 36.16 141.394 36.34C141.607 36.5167 141.764 36.7267 141.864 36.97C141.964 37.21 142.014 37.4683 142.014 37.745C142.014 38.085 141.954 38.3933 141.834 38.67C141.717 38.9467 141.546 39.185 141.319 39.385C141.092 39.5817 140.814 39.7333 140.484 39.84C140.157 39.9467 139.784 40 139.364 40H136.844V32.77H138.189V35.76H139.369ZM144.419 40H143.069V32.77H144.419V40Z" fill="#585858"/>
<path d="M151.909 40H150.569C150.475 40 150.4 39.9767 150.344 39.93C150.29 39.8833 150.247 39.83 150.214 39.77L148.539 36.995C148.512 37.0783 148.48 37.15 148.444 37.21L146.839 39.77C146.799 39.8267 146.752 39.88 146.699 39.93C146.649 39.9767 146.582 40 146.499 40H145.244L147.644 36.28L145.339 32.77H146.679C146.772 32.77 146.839 32.7833 146.879 32.81C146.922 32.8333 146.962 32.8733 146.999 32.93L148.644 35.58C148.677 35.4967 148.717 35.4133 148.764 35.33L150.274 32.955C150.31 32.8917 150.35 32.845 150.394 32.815C150.437 32.785 150.492 32.77 150.559 32.77H151.844L149.519 36.225L151.909 40Z" fill="#585858"/>
<path d="M161.269 32.77V40H159.919V35.47C159.919 35.3 159.922 35.1217 159.929 34.935C159.939 34.7483 159.959 34.55 159.989 34.34C159.922 34.5267 159.849 34.7 159.769 34.86C159.692 35.0167 159.617 35.155 159.544 35.275L156.779 39.585C156.749 39.635 156.712 39.685 156.669 39.735C156.629 39.785 156.584 39.83 156.534 39.87C156.484 39.9067 156.429 39.9383 156.369 39.965C156.309 39.9883 156.247 40 156.184 40H155.174V32.77H156.524V37.3C156.524 37.47 156.519 37.65 156.509 37.84C156.502 38.0267 156.484 38.225 156.454 38.435C156.521 38.2483 156.592 38.075 156.669 37.915C156.749 37.755 156.827 37.615 156.904 37.495L159.664 33.185C159.694 33.135 159.729 33.085 159.769 33.035C159.812 32.985 159.859 32.9417 159.909 32.905C159.959 32.865 160.012 32.8333 160.069 32.81C160.129 32.7833 160.192 32.77 160.259 32.77H161.269Z" fill="#585858"/>
<path d="M162.464 33.45C162.744 33.21 163.076 33.0233 163.459 32.89C163.846 32.7567 164.274 32.69 164.744 32.69C165.134 32.69 165.486 32.7367 165.799 32.83C166.116 32.9233 166.384 33.055 166.604 33.225C166.824 33.3916 166.993 33.5917 167.109 33.825C167.229 34.055 167.289 34.3083 167.289 34.585C167.289 34.925 167.211 35.2333 167.054 35.51C166.901 35.7833 166.668 36.005 166.354 36.175C166.521 36.255 166.673 36.35 166.809 36.46C166.949 36.5667 167.068 36.6867 167.164 36.82C167.264 36.95 167.341 37.0917 167.394 37.245C167.451 37.3983 167.479 37.5617 167.479 37.735C167.479 38.0617 167.418 38.3667 167.294 38.65C167.174 38.9333 166.998 39.18 166.764 39.39C166.534 39.6 166.251 39.7667 165.914 39.89C165.578 40.01 165.193 40.07 164.759 40.07C164.506 40.07 164.258 40.0467 164.014 40C163.774 39.9567 163.544 39.8933 163.324 39.81C163.104 39.7267 162.898 39.6267 162.704 39.51C162.511 39.3933 162.339 39.2633 162.189 39.12L162.584 38.475C162.621 38.4283 162.664 38.39 162.714 38.36C162.768 38.3267 162.826 38.31 162.889 38.31C162.976 38.31 163.071 38.345 163.174 38.415C163.278 38.4817 163.403 38.5567 163.549 38.64C163.696 38.7233 163.869 38.8 164.069 38.87C164.273 38.9367 164.516 38.97 164.799 38.97C165.249 38.97 165.598 38.8733 165.844 38.68C166.091 38.4867 166.214 38.19 166.214 37.79C166.214 37.6267 166.181 37.48 166.114 37.35C166.048 37.22 165.953 37.11 165.829 37.02C165.706 36.93 165.556 36.8617 165.379 36.815C165.206 36.765 165.013 36.74 164.799 36.74H163.779L163.774 35.66H164.704C165.121 35.66 165.446 35.5783 165.679 35.415C165.916 35.2483 166.034 35.0083 166.034 34.695C166.034 34.4183 165.923 34.1983 165.699 34.035C165.479 33.8683 165.159 33.785 164.739 33.785C164.496 33.785 164.286 33.8117 164.109 33.865C163.936 33.9183 163.784 33.9767 163.654 34.04C163.528 34.1 163.419 34.1567 163.329 34.21C163.243 34.2633 163.164 34.29 163.094 34.29C163.028 34.29 162.971 34.2733 162.924 34.24C162.878 34.2067 162.834 34.1567 162.794 34.09L162.464 33.45Z" fill="#585858"/>
<path d="M173.23 38.965V33.805H171.255C171.215 34.515 171.16 35.145 171.09 35.695C171.024 36.245 170.945 36.7283 170.855 37.145C170.765 37.5617 170.665 37.9183 170.555 38.215C170.445 38.5117 170.327 38.7617 170.2 38.965H173.23ZM175.705 38.965V41.335C175.705 41.4517 175.665 41.545 175.585 41.615C175.509 41.685 175.407 41.72 175.28 41.72H174.47V40H169.16V41.335C169.16 41.4517 169.12 41.545 169.04 41.615C168.964 41.685 168.862 41.72 168.735 41.72H167.925V38.965H168.715C168.809 38.915 168.9 38.835 168.99 38.725C169.084 38.615 169.174 38.46 169.26 38.26C169.347 38.06 169.429 37.8067 169.505 37.5C169.585 37.1933 169.657 36.82 169.72 36.38C169.784 35.9367 169.837 35.4183 169.88 34.825C169.927 34.2317 169.962 33.5467 169.985 32.77H174.58V38.965H175.705Z" fill="#585858"/>
<path d="M178.087 33.84V35.845H180.617V36.88H178.087V38.925H181.297V40H176.737V32.77H181.297V33.84H178.087Z" fill="#585858"/>
<path d="M188.319 40H186.964V33.805H184.989C184.942 34.7117 184.875 35.4967 184.789 36.16C184.705 36.82 184.604 37.3833 184.484 37.85C184.367 38.3133 184.232 38.69 184.079 38.98C183.929 39.27 183.764 39.4967 183.584 39.66C183.404 39.82 183.21 39.93 183.004 39.99C182.797 40.0467 182.58 40.075 182.354 40.075C182.114 40.075 181.939 40.0533 181.829 40.01C181.719 39.9667 181.664 39.9033 181.664 39.82V38.98H182.049C182.135 38.98 182.222 38.97 182.309 38.95C182.399 38.93 182.487 38.8883 182.574 38.825C182.664 38.7583 182.75 38.6633 182.834 38.54C182.92 38.4167 183.002 38.2517 183.079 38.045C183.159 37.835 183.232 37.5783 183.299 37.275C183.369 36.9717 183.43 36.6067 183.484 36.18C183.54 35.7533 183.589 35.26 183.629 34.7C183.672 34.1367 183.704 33.4933 183.724 32.77H188.319V40Z" fill="#585858"/>
<path d="M196.025 32.77V40H194.675V35.47C194.675 35.3 194.678 35.1217 194.685 34.935C194.695 34.7483 194.715 34.55 194.745 34.34C194.678 34.5267 194.605 34.7 194.525 34.86C194.448 35.0167 194.373 35.155 194.3 35.275L191.535 39.585C191.505 39.635 191.468 39.685 191.425 39.735C191.385 39.785 191.34 39.83 191.29 39.87C191.24 39.9067 191.185 39.9383 191.125 39.965C191.065 39.9883 191.003 40 190.94 40H189.93V32.77H191.28V37.3C191.28 37.47 191.275 37.65 191.265 37.84C191.258 38.0267 191.24 38.225 191.21 38.435C191.277 38.2483 191.348 38.075 191.425 37.915C191.505 37.755 191.583 37.615 191.66 37.495L194.42 33.185C194.45 33.135 194.485 33.085 194.525 33.035C194.568 32.985 194.615 32.9417 194.665 32.905C194.715 32.865 194.768 32.8333 194.825 32.81C194.885 32.7833 194.948 32.77 195.015 32.77H196.025Z" fill="#585858"/>
<path d="M203.73 32.77V40H202.38V35.47C202.38 35.3 202.383 35.1217 202.39 34.935C202.4 34.7483 202.42 34.55 202.45 34.34C202.383 34.5267 202.31 34.7 202.23 34.86C202.153 35.0167 202.078 35.155 202.005 35.275L199.24 39.585C199.21 39.635 199.173 39.685 199.13 39.735C199.09 39.785 199.045 39.83 198.995 39.87C198.945 39.9067 198.89 39.9383 198.83 39.965C198.77 39.9883 198.708 40 198.645 40H197.635V32.77H198.985V37.3C198.985 37.47 198.98 37.65 198.97 37.84C198.963 38.0267 198.945 38.225 198.915 38.435C198.982 38.2483 199.053 38.075 199.13 37.915C199.21 37.755 199.288 37.615 199.365 37.495L202.125 33.185C202.155 33.135 202.19 33.085 202.23 33.035C202.273 32.985 202.32 32.9417 202.37 32.905C202.42 32.865 202.473 32.8333 202.53 32.81C202.59 32.7833 202.653 32.77 202.72 32.77H203.73ZM200.745 31.725C200.868 31.725 200.972 31.7133 201.055 31.69C201.138 31.6667 201.205 31.6267 201.255 31.57C201.305 31.51 201.34 31.43 201.36 31.33C201.38 31.23 201.39 31.1033 201.39 30.95H202.12C202.207 30.95 202.27 30.9867 202.31 31.06C202.353 31.1333 202.375 31.2133 202.375 31.3C202.375 31.47 202.337 31.62 202.26 31.75C202.183 31.88 202.073 31.9883 201.93 32.075C201.787 32.1617 201.615 32.2283 201.415 32.275C201.215 32.3183 200.992 32.34 200.745 32.34C200.498 32.34 200.275 32.3183 200.075 32.275C199.875 32.2283 199.703 32.1617 199.56 32.075C199.417 31.9883 199.307 31.88 199.23 31.75C199.153 31.62 199.115 31.47 199.115 31.3C199.115 31.2133 199.135 31.1333 199.175 31.06C199.218 30.9867 199.283 30.95 199.37 30.95H200.1C200.1 31.1033 200.11 31.23 200.13 31.33C200.15 31.43 200.185 31.51 200.235 31.57C200.285 31.6267 200.35 31.6667 200.43 31.69C200.513 31.7133 200.618 31.725 200.745 31.725Z" fill="#585858"/>
</svg>
