<svg width="62" height="54" viewBox="0 0 62 54" fill="none" xmlns="http://www.w3.org/2000/svg">
<path fill-rule="evenodd" clip-rule="evenodd" d="M57 1H5C2.79086 1 1 2.79086 1 5V49C1 51.2091 2.79086 53 5 53H57C59.2091 53 61 51.2091 61 49V5C61 2.79086 59.2091 1 57 1ZM5 0C2.23858 0 0 2.23858 0 5V49C0 51.7614 2.23858 54 5 54H57C59.7614 54 62 51.7614 62 49V5C62 2.23858 59.7614 0 57 0H5Z" fill="#AAB2C2"/>
<path fill-rule="evenodd" clip-rule="evenodd" d="M28.9723 11.0069C23.6437 11.3135 19.2767 12.7972 17.0197 15.0678C16.5476 15.5427 16.268 15.9239 16.0057 16.4504C15.6841 17.096 15.6146 17.3888 15.6146 18.0997C15.6146 18.7947 15.6824 19.0905 15.9839 19.712C16.4938 20.7627 17.4659 21.7271 18.8552 22.5605C21.1202 23.919 24.2078 24.7881 27.9849 25.13C29.0148 25.2232 31.9664 25.2231 33.0151 25.1297C36.7697 24.7956 39.84 23.9329 42.1363 22.5671C43.1338 21.9738 44.0687 21.1644 44.5802 20.4514C44.8734 20.0427 45.1856 19.4082 45.2996 18.9892C45.4232 18.5351 45.4237 17.6677 45.3006 17.2102C45.1904 16.8004 44.8312 16.0829 44.551 15.7127C42.8702 13.492 39.0229 11.8041 34.2819 11.2078C33.0295 11.0502 32.4206 11.0145 30.7981 11.0036C29.9271 10.9977 29.1055 10.9992 28.9723 11.0069ZM31.6178 16.3962C32.7736 16.5392 33.7556 16.8917 34.2579 17.3439C34.7833 17.8168 34.788 18.3745 34.2706 18.8448C33.0609 19.9446 29.6773 20.2087 27.6006 19.3655C26.5903 18.9553 26.1313 18.3118 26.4332 17.7291C26.7914 17.0378 28.0682 16.5056 29.7175 16.3601C30.1685 16.3202 31.1558 16.339 31.6178 16.3962ZM18.2041 23.5712C18.2041 23.6396 18.5674 24.084 18.8135 24.3165C20.457 25.8694 23.8913 27.0847 27.6868 27.4564C29.517 27.6356 31.5155 27.6359 33.3132 27.4573C37.1286 27.0782 40.5419 25.8705 42.1845 24.3184C42.4558 24.0621 42.8245 23.6012 42.7877 23.5646C42.7782 23.5551 42.6211 23.6336 42.4385 23.7389C41.7793 24.119 40.6196 24.6347 39.7244 24.9458C34.8406 26.6428 28.4817 26.8594 23.1648 25.5097C21.4794 25.0819 19.7043 24.3965 18.5237 23.7177C18.2119 23.5384 18.2041 23.5349 18.2041 23.5712ZM17.9805 25.2991C17.9805 25.6318 18.2427 26.1086 18.6659 26.5457C20.2252 28.1561 23.6964 29.4216 27.6682 29.8278C29.1578 29.9801 31.5095 29.9984 32.9219 29.8687C36.1493 29.5722 38.9506 28.7869 40.9227 27.6259C42.159 26.8981 43.0195 25.9432 43.0195 25.2991V25.1715L42.8052 25.3549C40.9284 26.9613 37.5 28.1698 33.6328 28.5882C32.45 28.7162 31.8027 28.7495 30.5 28.7495C28.7739 28.7495 27.4723 28.6464 25.8948 28.3847C22.5821 27.8351 19.825 26.7502 18.1948 25.3549L17.9805 25.1715V25.2991ZM17.9805 27.6712C17.9805 28.1662 18.5206 28.8961 19.3372 29.5045C21.1513 30.8563 24.2116 31.8464 27.6682 32.1999C29.1578 32.3522 31.5095 32.3705 32.9219 32.2408C36.1493 31.9443 38.9506 31.159 40.9227 29.998C42.159 29.2701 43.0195 28.3153 43.0195 27.6712V27.5436L42.8052 27.727C40.9251 29.3362 37.5069 30.5411 33.6328 30.9603C32.4478 31.0885 31.8018 31.1217 30.5 31.1213C28.7673 31.1208 27.4704 31.0181 25.8948 30.7567C22.5822 30.2072 19.8249 29.1222 18.1948 27.727L17.9805 27.5436V27.6712ZM17.9805 30.05C17.9805 30.3863 18.2418 30.8531 18.6844 31.3075C20.2413 32.906 23.7127 34.1674 27.6682 34.572C29.1578 34.7243 31.5095 34.7426 32.9219 34.6128C36.15 34.3163 38.9543 33.5302 40.9227 32.3703C42.16 31.6412 43.0195 30.6873 43.0195 30.0433V29.9157L42.8052 30.0991C40.9251 31.7083 37.5069 32.9132 33.6328 33.3324C32.4478 33.4606 31.8018 33.4938 30.5 33.4934C28.7673 33.4929 27.4704 33.3902 25.8948 33.1288C22.5802 32.5789 19.8259 31.4952 18.1948 30.0991L17.9805 29.9157V30.05ZM16.5255 31.3188C15.843 32.0278 15.395 32.759 15.1702 33.5307C15.039 33.9809 15.0003 34.2488 15 34.7086C14.9982 37.2157 17.3154 39.6875 21.1604 41.28C23.2416 42.142 25.4836 42.6693 28.1153 42.9157C28.9747 42.9962 31.1234 43.0272 32.0476 42.9725C34.3052 42.8388 36.4073 42.4613 38.2849 41.8521C43.0352 40.3111 46.002 37.5641 46 34.7086C45.9998 34.4922 45.9829 34.2122 45.9624 34.0865C45.8087 33.1445 45.2905 32.1667 44.5194 31.3637L44.2304 31.0628L44.2099 33.0781C44.1871 35.3206 44.1933 35.2622 43.9186 35.8347C43.1368 37.4638 40.577 38.9653 37.094 39.8378C33.9852 40.6166 30.3827 40.8208 27.0162 40.4091C22.1062 39.8087 18.1042 37.966 17.0814 35.8347C16.8068 35.2622 16.8129 35.3204 16.7901 33.0794L16.7696 31.0653L16.5255 31.3188ZM17.9805 32.4154C17.9805 32.7481 18.2427 33.2248 18.6659 33.6619C20.2242 35.2712 23.6991 36.5381 27.6682 36.944C29.1578 37.0964 31.5095 37.1147 32.9219 36.9849C36.15 36.6884 38.9543 35.9023 40.9227 34.7424C42.16 34.0133 43.0195 33.0594 43.0195 32.4154V32.2878L42.8052 32.4711C40.9251 34.0804 37.5069 35.2853 33.6328 35.7044C32.4575 35.8316 31.8057 35.8651 30.5 35.8655C28.7762 35.866 27.4738 35.7629 25.8948 35.5009C22.5802 34.951 19.8259 33.8672 18.1948 32.4711L17.9805 32.2878V32.4154ZM17.9805 34.7874C17.9805 35.1201 18.2427 35.5969 18.6659 36.034C20.2242 37.6433 23.6991 38.9102 27.6682 39.3161C29.1578 39.4684 31.5095 39.4867 32.9219 39.357C36.1518 39.0603 38.9491 38.2761 40.9227 37.1142C42.159 36.3864 43.0195 35.4315 43.0195 34.7874V34.6598L42.8052 34.8432C40.9251 36.4525 37.5069 37.6574 33.6328 38.0765C32.45 38.2045 31.8027 38.2378 30.5 38.2378C28.7739 38.2378 27.4723 38.1347 25.8948 37.873C22.5802 37.323 19.8259 36.2393 18.1948 34.8432L17.9805 34.6598V34.7874Z" fill="#EA5A12"/>
</svg>
