<svg width="20" height="14" viewBox="0 0 20 14" fill="none" xmlns="http://www.w3.org/2000/svg">
<path fill-rule="evenodd" clip-rule="evenodd" d="M0.735047 0.161847C0.255682 0.364253 0.125778 0.485932 0.256255 0.61035C0.307366 0.659126 1.59206 1.81083 3.11105 3.16978C4.6301 4.52865 6.69727 6.38148 7.70483 7.28703C8.79524 8.26704 9.592 8.9366 9.67314 8.94104C9.94641 8.9561 10.0678 8.91815 10.2857 8.74965C10.4918 8.59028 15.0471 4.66083 16.9156 3.03062C17.3667 2.63696 18.1524 1.95286 18.6616 1.51042C19.1707 1.06792 19.6114 0.682275 19.6408 0.653387C19.7418 0.554206 19.5574 0.338627 19.2267 0.169412L18.8957 0L10.0034 0.00156513L1.11111 0.0030646L0.735047 0.161847ZM0 7.32374C0 10.3969 0.0217134 12.9112 0.0483166 12.9112C0.0748563 12.9112 1.54451 11.7223 3.31416 10.2691L6.53168 7.62689L6.2341 7.3463C6.07041 7.19195 4.67937 5.94113 3.14286 4.56667C1.60635 3.19227 0.270603 1.99309 0.174603 1.90193L0 1.73624V7.32374ZM18.8752 2.69134C15.1853 5.91413 13.6076 7.28135 13.4377 7.40355C13.3223 7.48656 13.3174 7.50984 13.3989 7.58855C13.6867 7.86673 19.8817 12.9112 19.9354 12.9112C19.9787 12.9112 20 11.07 20 7.33593C20 4.26951 19.9867 1.76062 19.9704 1.76062C19.9541 1.76062 19.4613 2.17946 18.8752 2.69134ZM11.3016 9.26708C10.2224 10.2102 9.92825 10.4047 9.67816 10.3402C9.59835 10.3197 9.08527 9.89934 8.53797 9.40623C7.99067 8.91313 7.5193 8.50062 7.49054 8.4896C7.46178 8.47858 6.00165 9.65233 4.24584 11.0979L1.0534 13.7263L5.54756 13.7431C8.0193 13.7523 12.0415 13.7523 14.4857 13.7431L18.9297 13.7263L15.6773 11.0528C13.8884 9.58236 12.4079 8.37301 12.387 8.36544C12.3662 8.35781 11.8778 8.76354 11.3016 9.26708Z" fill="#EA5F12"/>
</svg>
