<svg width="62" height="54" viewBox="0 0 62 54" fill="none" xmlns="http://www.w3.org/2000/svg">
<path fill-rule="evenodd" clip-rule="evenodd" d="M57 1H5C2.79086 1 1 2.79086 1 5V49C1 51.2091 2.79086 53 5 53H57C59.2091 53 61 51.2091 61 49V5C61 2.79086 59.2091 1 57 1ZM5 0C2.23858 0 0 2.23858 0 5V49C0 51.7614 2.23858 54 5 54H57C59.7614 54 62 51.7614 62 49V5C62 2.23858 59.7614 0 57 0H5Z" fill="#AAB2C2"/>
<path fill-rule="evenodd" clip-rule="evenodd" d="M45.4089 9.23653C45.354 9.40145 45.3846 9.648 45.5053 9.97145C45.7896 10.7326 45.5806 11.1268 45.1297 10.6802C44.9654 10.5174 44.5684 10.4098 44.2479 10.4411C43.767 10.4881 43.72 10.6433 43.9799 11.3278L44.2946 12.1577L42.1248 11.9241L42.7894 13.6773L40.6196 13.4437L41.2842 15.1969L39.1144 14.9634L39.779 16.7166L37.6092 16.483L38.2738 18.2362L36.104 18.0026L36.7686 19.7558L34.6395 19.5259L35.2505 21.4695L34.4266 21.1072C33.9735 20.9082 33.5067 20.8419 33.3893 20.9605C33.2718 21.079 33.2987 21.5894 33.4489 22.0943C33.7148 22.9882 33.706 23.0036 33.1144 22.679C32.179 22.1662 31.6429 22.6011 31.9474 23.6258C32.2153 24.5263 32.213 24.53 31.5904 24.1877C31.2455 23.9984 30.7961 24.0126 30.5914 24.2193C30.3867 24.4259 30.3417 24.9108 30.4918 25.2968L30.7639 25.999L30.1217 25.6704C29.7665 25.4885 29.3051 25.5179 29.089 25.7361C28.8703 25.9568 28.8498 26.407 29.0425 26.76L29.3866 27.3895L28.6621 27.144C28.2635 27.0089 27.7703 27.0675 27.5656 27.2741C27.3608 27.4808 27.3509 27.9303 27.5435 28.2733C27.8859 28.8821 27.8708 28.8899 26.9078 28.6121L25.9214 28.3275L26.0506 29.4253C26.1761 30.4936 26.1632 30.5148 25.5717 30.2119C24.787 29.8101 24.3021 30.3096 24.585 31.228C24.8058 31.9452 24.8017 31.9476 23.8589 31.658L22.911 31.3667L23.1611 33.4935L21.4017 32.8457L21.5367 34.012C21.6297 34.8186 21.5618 35.0708 21.3169 34.8296C21.122 34.6378 20.715 34.5051 20.4124 34.5344C19.9766 34.5771 19.8949 34.8068 20.0199 35.6376C20.1312 36.3779 20.0717 36.5856 19.8175 36.3433C19.6194 36.1548 19.2067 36.0248 18.9003 36.055C18.4584 36.0981 18.3742 36.2817 18.494 36.9427L18.6449 37.776L17.8102 37.6331C17.1481 37.5196 16.9653 37.6056 16.9263 38.0478C16.899 38.3545 17.0356 38.7633 17.2292 38.9564C17.475 39.2011 17.2353 39.2708 16.4387 39.1862L15.2962 39.0648L15.5007 40.0247C15.6134 40.5526 15.5716 41.1198 15.4077 41.2852C15.1695 41.5257 15.6689 42.1396 17.9079 44.3574C20.3005 46.7272 20.8346 47.1419 21.594 47.218C22.5062 47.3096 22.9231 46.7445 22.3572 46.1839C21.8926 45.7238 22.3589 45.4249 23.0161 45.7614C23.3299 45.9222 23.7345 45.9045 23.9149 45.7223C24.0953 45.5402 24.0984 45.1463 23.9214 44.8475C23.7445 44.5484 23.6785 44.2242 23.7751 44.1267C23.8716 44.0293 24.2074 44.081 24.5213 44.2418C24.8351 44.4026 25.2397 44.3849 25.4201 44.2027C25.6005 44.0206 25.6036 43.6267 25.4265 43.3279C25.2497 43.0288 25.1837 42.7046 25.2803 42.6071C25.3768 42.5096 25.7126 42.5614 26.0265 42.7222C26.3403 42.8829 26.7292 42.8811 26.8907 42.7181C27.0522 42.555 27.0503 42.1661 26.8866 41.8538C26.7228 41.5415 26.6726 41.2015 26.775 41.0981C26.8773 40.9948 27.2178 41.0418 27.5317 41.2026C28.2672 41.5793 28.7755 41.0661 28.3918 40.3342C28.0106 39.607 28.3061 39.3088 29.0369 39.683C29.3507 39.8437 29.7396 39.8419 29.9011 39.6788C30.0626 39.5158 30.0607 39.1269 29.897 38.8146C29.7332 38.5023 29.6783 38.167 29.7748 38.0695C29.8714 37.9721 30.1962 38.0349 30.4969 38.2089C30.7974 38.3832 31.1913 38.3763 31.3717 38.1942C31.5521 38.012 31.5659 37.6073 31.4022 37.295C31.0594 36.6411 31.3538 36.1719 31.8184 36.6321C32.3728 37.1813 32.9459 36.776 32.8499 35.9025C32.7356 34.8612 32.817 34.7702 33.5073 35.1697C33.8078 35.3439 34.2017 35.3371 34.3821 35.1549C34.5625 34.9728 34.5763 34.5681 34.4126 34.2558C34.0698 33.6019 34.3642 33.1327 34.8288 33.5928C35.3832 34.142 35.9563 33.7368 35.8603 32.8633C35.7521 31.88 35.8964 31.6397 36.334 32.0732C36.8863 32.6203 37.4617 32.2182 37.3666 31.3521L37.2747 30.517L38.9215 30.7892L38.7799 28.9974L40.4267 29.2695L40.2851 27.4778L41.9319 27.7499L41.7903 25.9581L43.4371 26.2303L43.2955 24.4385L44.9371 24.7159L44.7222 22.9035L46.4423 23.1963L46.2274 21.3839L47.9645 21.6595L47.6885 20.0034L48.5244 20.0874C49.3914 20.1742 49.788 19.595 49.2357 19.048C48.7963 18.6128 49.0329 18.472 50.0816 18.5453L50.9867 18.6084L50.6989 16.9642L52.4919 17.0888L52.3148 16.0769L45.4089 9.23653Z" fill="#EA5A12"/>
</svg>
