<svg width="62" height="54" viewBox="0 0 62 54" fill="none" xmlns="http://www.w3.org/2000/svg">
<path fill-rule="evenodd" clip-rule="evenodd" d="M57 1H5C2.79086 1 1 2.79086 1 5V49C1 51.2091 2.79086 53 5 53H57C59.2091 53 61 51.2091 61 49V5C61 2.79086 59.2091 1 57 1ZM5 0C2.23858 0 0 2.23858 0 5V49C0 51.7614 2.23858 54 5 54H57C59.7614 54 62 51.7614 62 49V5C62 2.23858 59.7614 0 57 0H5Z" fill="#AAB2C2"/>
<path fill-rule="evenodd" clip-rule="evenodd" d="M28.0368 16.597C29.4804 13.63 32.4602 11.4904 35.7221 11.0784C40.5767 10.4652 45.2282 13.5079 46.5925 18.1892C47.6298 21.7484 46.6558 25.5179 44.0243 28.1283C42.265 29.8735 39.9862 30.8715 37.495 30.9877C36.7883 31.0207 36.1004 30.987 35.435 30.8881C34.4349 26.9817 31.244 23.9527 27.2489 23.1877C26.7443 21.0003 27.0069 18.7136 28.0368 16.597ZM40.0972 19.1731C40.503 19.1103 40.853 19.0299 40.8752 18.9943C40.8973 18.9588 40.4171 18.4355 39.8081 17.8315L38.7008 16.7332L38.5376 17.6343C38.3989 18.4003 38.3513 18.526 38.2202 18.4727C37.2867 18.0933 36.3171 18.0531 35.704 18.3683L35.6557 18.3934C35.5566 18.4452 35.4922 18.4789 35.4439 18.4632C35.3543 18.4339 35.3202 18.2343 35.223 17.6642L35.0806 16.8331L33.9731 17.9315C33.2546 18.6441 32.9063 19.0517 32.9813 19.0921C33.0449 19.1263 33.4029 19.2048 33.7768 19.2665C34.1506 19.3283 34.4558 19.4065 34.455 19.4402C34.4543 19.4741 34.3928 19.6696 34.3185 19.8747C34.1192 20.4249 34.1413 21.3761 34.3648 21.8658C34.4668 22.0894 34.5502 22.3039 34.5502 22.3425C34.5502 22.3811 34.2256 22.4648 33.8289 22.5284C33.7621 22.5392 33.699 22.549 33.6397 22.5583C33.2096 22.6256 32.9752 22.6622 32.9367 22.7693C32.8905 22.8976 33.1252 23.1269 33.6409 23.6309C33.7004 23.6889 33.7635 23.7506 33.8304 23.8162C34.4167 24.3915 34.9382 24.8621 34.9894 24.8621C35.0406 24.8621 35.1386 24.5036 35.2071 24.0655C35.2757 23.6273 35.365 23.2485 35.4056 23.2235C35.4462 23.1985 35.6395 23.2467 35.8352 23.3306C36.302 23.5308 37.3022 23.5338 37.7726 23.3364C37.9723 23.2526 38.1695 23.1841 38.2108 23.1841C38.2522 23.1841 38.3602 23.6057 38.4509 24.1212L38.6158 25.0581L39.7187 23.9643C40.3253 23.3628 40.8035 22.8415 40.7814 22.806C40.7593 22.7704 40.4033 22.6891 39.9903 22.6251C39.3097 22.5199 39.2158 22.5244 38.9862 22.6741L38.7328 22.8391L38.9446 22.5221C39.3718 21.8831 39.4658 21.5747 39.4677 20.8069C39.4691 20.2585 39.4242 19.9777 39.298 19.7457C39.0838 19.3523 39.124 19.3236 40.0972 19.1731Z" fill="#EA5A12"/>
<path fill-rule="evenodd" clip-rule="evenodd" d="M26.4654 24.3907C28.635 24.767 30.7487 25.9737 32.1793 27.653C34.7982 30.727 35.2553 35.0777 33.3363 38.6647C31.1791 42.6969 26.4762 44.6736 22.0644 43.4023C17.8975 42.2016 15 38.3616 15 34.04C15 29.2459 18.4857 25.1464 23.2425 24.3458C23.977 24.2222 25.6262 24.2452 26.4654 24.3907ZM25.4668 31.0422L25.9492 31.208L26.2783 29.2983L27.7174 30.6641C28.5089 31.4153 29.1565 32.0583 29.1565 32.0928C29.1565 32.1894 28.9727 32.2399 28.1661 32.365C27.7569 32.4284 27.3934 32.5061 27.3584 32.5376C27.3234 32.5692 27.3572 32.8258 27.4337 33.1078C27.5871 33.6737 27.5449 34.3315 27.3208 34.8646C27.1511 35.2686 27.1775 35.2878 28.1076 35.437C28.6108 35.5177 28.9059 35.5426 28.9561 35.6666C29.0243 35.8354 28.6389 36.1875 27.7067 37.113C26.749 38.0639 26.2432 38.5054 26.2136 38.4163C26.1892 38.3422 26.0991 37.8789 26.0136 37.3866L25.8581 36.4916L25.5151 36.6134C25.0711 36.7712 24.1435 36.7695 23.6945 36.6103C23.5476 36.5581 23.4613 36.5122 23.3997 36.5346C23.2916 36.5739 23.26 36.8236 23.1107 37.6195C23.0348 38.0243 22.9592 38.3689 22.9428 38.3852C22.9265 38.4015 22.2665 37.7709 21.4763 36.9839L20.0394 35.5529L20.9651 35.3898C21.4742 35.3 21.9041 35.2155 21.9206 35.2018C21.937 35.1882 21.8842 34.9555 21.8034 34.6848C21.6226 34.0795 21.6165 33.5486 21.7841 32.9948L21.912 32.5725L20.0412 32.2457L21.4787 30.814C22.2693 30.0267 22.9443 29.4131 22.9787 29.4506C23.0132 29.488 23.0902 29.8124 23.1498 30.1713C23.2493 30.7695 23.2744 31 23.3887 31.0596C23.4586 31.0961 23.562 31.0686 23.7363 31.0222L23.7862 31.0089L23.8349 30.9962C24.4785 30.8302 24.8828 30.8415 25.4668 31.0422Z" fill="#EA5A12"/>
</svg>
