<svg width="205" height="42" viewBox="0 0 205 42" fill="none" xmlns="http://www.w3.org/2000/svg">
<path d="M23.649 33.1454L11.1816 39.5461L0 20.0479L23.649 33.1454Z" fill="#E6E4E5"/>
<path d="M24.0247 6.95659L34.59 1.25359L45.8638 20.9624L24.0247 6.95659Z" fill="#E6E4E5"/>
<path d="M11.8432 26.2596L0.441894 20L11.666 1.07859L11.8432 26.2596Z" fill="white"/>
<path d="M34.1685 13.5262L45.2519 20.3239L34.2605 38.9474L34.1685 13.5262Z" fill="white"/>
<path d="M11.4419 13V0.999985H33.4419L11.4419 13Z" fill="#0794DB"/>
<path d="M34.4419 28V40H12.4419L34.4419 28Z" fill="#0794DB"/>
<path d="M11.4419 13V0.999985H33.4419L11.4419 13Z" fill="#0794DB" fill-opacity="0.3"/>
<path d="M34.4419 28V40H12.4419L34.4419 28Z" fill="#0794DB" fill-opacity="0.3"/>
<path d="M57.4279 3.59398C58.3912 2.77798 59.5756 2.13765 60.9809 1.67298C62.3976 1.19698 63.9276 0.958984 65.5709 0.958984C66.9649 0.958984 68.2229 1.12332 69.3449 1.45198C70.4782 1.76932 71.4416 2.21698 72.2349 2.79499C73.0282 3.37299 73.6346 4.06998 74.0539 4.88598C74.4846 5.69065 74.6999 6.58032 74.6999 7.55498C74.6999 8.66565 74.4562 9.69698 73.9689 10.649C73.4929 11.5897 72.7392 12.3717 71.7079 12.995C72.2292 13.267 72.7109 13.5843 73.1529 13.947C73.5949 14.2983 73.9689 14.6893 74.2749 15.12C74.5922 15.5393 74.8359 15.9983 75.0059 16.497C75.1872 16.9843 75.2779 17.5057 75.2779 18.061C75.2779 19.2057 75.0626 20.2767 74.6319 21.274C74.2126 22.26 73.5949 23.1213 72.7789 23.858C71.9629 24.5947 70.9599 25.1783 69.7699 25.609C68.5799 26.0283 67.2199 26.238 65.6899 26.238C64.8399 26.238 63.9842 26.1587 63.1229 26C62.2616 25.8413 61.4286 25.6203 60.6239 25.337C59.8306 25.0423 59.0826 24.6967 58.3799 24.3C57.6886 23.9033 57.0766 23.4613 56.5439 22.974L58.2439 20.288C58.3799 20.0953 58.5556 19.9367 58.7709 19.812C58.9976 19.676 59.2412 19.608 59.5019 19.608C59.8532 19.608 60.2159 19.7157 60.5899 19.931C60.9639 20.1463 61.3889 20.3843 61.8649 20.645C62.3522 20.9057 62.9189 21.1437 63.5649 21.359C64.2109 21.5743 64.9759 21.682 65.8599 21.682C66.4946 21.682 67.0612 21.6253 67.5599 21.512C68.0586 21.3873 68.4779 21.189 68.8179 20.917C69.1692 20.645 69.4356 20.2937 69.6169 19.863C69.7982 19.4323 69.8889 18.9053 69.8889 18.282C69.8889 17.7947 69.7812 17.364 69.5659 16.99C69.3619 16.616 69.0672 16.3043 68.6819 16.055C68.3079 15.7943 67.8546 15.6017 67.3219 15.477C66.8006 15.3523 66.2226 15.2957 65.5879 15.307H61.9839L61.9669 10.853H65.1119C66.5399 10.853 67.5996 10.615 68.2909 10.139C68.9822 9.65165 69.3279 8.94898 69.3279 8.03098C69.3279 7.24898 69.0106 6.63132 68.3759 6.17799C67.7412 5.71332 66.7892 5.48098 65.5199 5.48098C64.7832 5.48098 64.1372 5.56598 63.5819 5.73598C63.0379 5.89465 62.5506 6.07598 62.1199 6.27998C61.7006 6.48398 61.3266 6.67098 60.9979 6.84098C60.6806 6.99965 60.3859 7.07898 60.1139 7.07898C59.8192 7.07898 59.5756 7.01098 59.3829 6.87499C59.2016 6.73898 59.0259 6.53498 58.8559 6.26299L57.4279 3.59398Z" fill="white"/>
<path d="M106.64 1.23098V26H101.574V11.754C101.574 11.4253 101.58 11.0683 101.591 10.683C101.614 10.2977 101.648 9.90665 101.693 9.50998L95.114 22.243C94.91 22.6397 94.6323 22.94 94.281 23.144C93.941 23.348 93.55 23.45 93.108 23.45H92.326C91.884 23.45 91.4873 23.348 91.136 23.144C90.796 22.94 90.524 22.6397 90.32 22.243L83.741 9.47598C83.775 9.88398 83.8033 10.2863 83.826 10.683C83.8486 11.0683 83.86 11.4253 83.86 11.754V26H78.794V1.23098H83.18C83.4293 1.23098 83.6446 1.23665 83.826 1.24798C84.0186 1.25932 84.1886 1.29332 84.336 1.34998C84.4833 1.40665 84.6136 1.49732 84.727 1.62198C84.8516 1.73532 84.9706 1.89965 85.084 2.11498L91.459 14.678C91.6856 15.1087 91.901 15.5563 92.105 16.021C92.3203 16.4857 92.5243 16.9617 92.717 17.449C92.9096 16.9503 93.108 16.463 93.312 15.987C93.5273 15.511 93.754 15.0577 93.992 14.627L100.35 2.11498C100.463 1.89965 100.577 1.73532 100.69 1.62198C100.815 1.49732 100.951 1.40665 101.098 1.34998C101.245 1.29332 101.41 1.25932 101.591 1.24798C101.784 1.23665 102.005 1.23098 102.254 1.23098H106.64Z" fill="white"/>
<path d="M133.057 1.23098V26H127.277V12.128C127.277 11.482 127.294 10.802 127.328 10.088C127.373 9.36265 127.452 8.59199 127.566 7.77598C127.305 8.50132 127.022 9.17565 126.716 9.79898C126.41 10.411 126.109 10.9493 125.815 11.414L118.284 24.283C118.159 24.487 118.006 24.691 117.825 24.895C117.655 25.099 117.462 25.286 117.247 25.456C117.031 25.6147 116.799 25.745 116.55 25.847C116.3 25.949 116.04 26 115.768 26H111.433V1.23098H117.213V15.086C117.213 15.732 117.196 16.4177 117.162 17.143C117.128 17.857 117.048 18.622 116.924 19.438C117.184 18.724 117.468 18.061 117.774 17.449C118.08 16.8257 118.38 16.2817 118.675 15.817L126.206 2.94798C126.33 2.74398 126.478 2.53998 126.648 2.33598C126.829 2.13198 127.027 1.95065 127.243 1.79198C127.458 1.62198 127.69 1.48598 127.94 1.38398C128.189 1.28198 128.45 1.23098 128.722 1.23098H133.057Z" fill="white"/>
<path d="M56.8319 33.45C57.1119 33.21 57.4436 33.0233 57.8269 32.89C58.2136 32.7567 58.6419 32.69 59.1119 32.69C59.5019 32.69 59.8536 32.7367 60.1669 32.83C60.4836 32.9233 60.7519 33.055 60.9719 33.225C61.1919 33.3917 61.3602 33.5917 61.4769 33.825C61.5969 34.055 61.6569 34.3083 61.6569 34.585C61.6569 34.925 61.5786 35.2333 61.4219 35.51C61.2686 35.7833 61.0352 36.005 60.7219 36.175C60.8886 36.255 61.0402 36.35 61.1769 36.46C61.3169 36.5667 61.4352 36.6866 61.5319 36.82C61.6319 36.95 61.7086 37.0917 61.7619 37.245C61.8186 37.3983 61.8469 37.5617 61.8469 37.735C61.8469 38.0617 61.7852 38.3667 61.6619 38.65C61.5419 38.9333 61.3652 39.18 61.1319 39.39C60.9019 39.6 60.6186 39.7667 60.2819 39.89C59.9452 40.01 59.5602 40.07 59.1269 40.07C58.8736 40.07 58.6252 40.0466 58.3819 40C58.1419 39.9566 57.9119 39.8933 57.6919 39.81C57.4719 39.7267 57.2652 39.6267 57.0719 39.51C56.8786 39.3933 56.7069 39.2633 56.5569 39.12L56.9519 38.475C56.9886 38.4283 57.0319 38.39 57.0819 38.36C57.1352 38.3267 57.1936 38.31 57.2569 38.31C57.3436 38.31 57.4386 38.345 57.5419 38.415C57.6452 38.4817 57.7702 38.5567 57.9169 38.64C58.0636 38.7233 58.2369 38.8 58.4369 38.87C58.6402 38.9366 58.8836 38.97 59.1669 38.97C59.6169 38.97 59.9652 38.8733 60.2119 38.68C60.4586 38.4867 60.5819 38.19 60.5819 37.79C60.5819 37.6267 60.5486 37.48 60.4819 37.35C60.4152 37.22 60.3202 37.11 60.1969 37.02C60.0736 36.93 59.9236 36.8616 59.7469 36.815C59.5736 36.765 59.3802 36.74 59.1669 36.74H58.1469L58.1419 35.66H59.0719C59.4886 35.66 59.8136 35.5783 60.0469 35.415C60.2836 35.2483 60.4019 35.0083 60.4019 34.695C60.4019 34.4183 60.2902 34.1983 60.0669 34.035C59.8469 33.8683 59.5269 33.785 59.1069 33.785C58.8636 33.785 58.6536 33.8117 58.4769 33.865C58.3036 33.9183 58.1519 33.9767 58.0219 34.04C57.8952 34.1 57.7869 34.1567 57.6969 34.21C57.6102 34.2633 57.5319 34.29 57.4619 34.29C57.3952 34.29 57.3386 34.2733 57.2919 34.24C57.2452 34.2067 57.2019 34.1567 57.1619 34.09L56.8319 33.45Z" fill="white"/>
<path d="M66.8429 37.27L65.9629 34.865C65.9196 34.7583 65.8746 34.6317 65.8279 34.485C65.7812 34.3383 65.7346 34.18 65.6879 34.01C65.6446 34.18 65.5996 34.34 65.5529 34.49C65.5062 34.6367 65.4612 34.765 65.4179 34.875L64.5429 37.27H66.8429ZM69.2179 40H68.1779C68.0612 40 67.9662 39.9717 67.8929 39.915C67.8196 39.855 67.7646 39.7817 67.7279 39.695L67.1879 38.22H64.1929L63.6529 39.695C63.6262 39.7717 63.5746 39.8417 63.4979 39.905C63.4212 39.9683 63.3246 40 63.2079 40H62.1629L65.0029 32.77H66.3779L69.2179 40Z" fill="white"/>
<path d="M72.657 38.95C72.907 38.95 73.117 38.92 73.287 38.86C73.457 38.8 73.592 38.72 73.692 38.62C73.7953 38.52 73.8686 38.4033 73.912 38.27C73.9586 38.1367 73.982 37.995 73.982 37.845C73.982 37.6883 73.957 37.5483 73.907 37.425C73.857 37.2983 73.7786 37.1917 73.672 37.105C73.5653 37.015 73.427 36.9467 73.257 36.9C73.0903 36.8533 72.8886 36.83 72.652 36.83H71.297V38.95H72.657ZM71.297 33.81V35.9H72.367C72.827 35.9 73.1736 35.8167 73.407 35.65C73.6436 35.4833 73.762 35.2183 73.762 34.855C73.762 34.4783 73.6553 34.21 73.442 34.05C73.2286 33.89 72.8953 33.81 72.442 33.81H71.297ZM72.442 32.77C72.9153 32.77 73.3203 32.815 73.657 32.905C73.9936 32.995 74.2686 33.1233 74.482 33.29C74.6986 33.4567 74.857 33.6583 74.957 33.895C75.057 34.1317 75.107 34.3983 75.107 34.695C75.107 34.865 75.082 35.0283 75.032 35.185C74.982 35.3383 74.9036 35.4833 74.797 35.62C74.6936 35.7533 74.5603 35.875 74.397 35.985C74.237 36.095 74.0453 36.1883 73.822 36.265C74.8153 36.4883 75.312 37.025 75.312 37.875C75.312 38.1817 75.2536 38.465 75.137 38.725C75.0203 38.985 74.8503 39.21 74.627 39.4C74.4036 39.5867 74.1286 39.7333 73.802 39.84C73.4753 39.9467 73.102 40 72.682 40H69.952V32.77H72.442Z" fill="white"/>
<path d="M83.429 36.385C83.429 36.915 83.3407 37.4067 83.164 37.86C82.9907 38.31 82.744 38.7 82.424 39.03C82.104 39.36 81.719 39.6183 81.269 39.805C80.819 39.9883 80.319 40.08 79.769 40.08C79.2223 40.08 78.724 39.9883 78.274 39.805C77.824 39.6183 77.4373 39.36 77.114 39.03C76.794 38.7 76.5457 38.31 76.369 37.86C76.1923 37.4067 76.104 36.915 76.104 36.385C76.104 35.855 76.1923 35.365 76.369 34.915C76.5457 34.4617 76.794 34.07 77.114 33.74C77.4373 33.41 77.824 33.1533 78.274 32.97C78.724 32.7833 79.2223 32.69 79.769 32.69C80.1357 32.69 80.4807 32.7333 80.804 32.82C81.1273 32.9033 81.424 33.0233 81.694 33.18C81.964 33.3333 82.2057 33.5216 82.419 33.745C82.6357 33.965 82.819 34.2117 82.969 34.485C83.119 34.7583 83.2323 35.055 83.309 35.375C83.389 35.695 83.429 36.0317 83.429 36.385ZM82.054 36.385C82.054 35.9883 82.0007 35.6333 81.894 35.32C81.7873 35.0033 81.6357 34.735 81.439 34.515C81.2423 34.295 81.0023 34.1266 80.719 34.01C80.439 33.8933 80.1223 33.835 79.769 33.835C79.4157 33.835 79.0973 33.8933 78.814 34.01C78.534 34.1266 78.294 34.295 78.094 34.515C77.8973 34.735 77.7457 35.0033 77.639 35.32C77.5323 35.6333 77.479 35.9883 77.479 36.385C77.479 36.7817 77.5323 37.1383 77.639 37.455C77.7457 37.7683 77.8973 38.035 78.094 38.255C78.294 38.4717 78.534 38.6383 78.814 38.755C79.0973 38.8717 79.4157 38.93 79.769 38.93C80.1223 38.93 80.439 38.8717 80.719 38.755C81.0023 38.6383 81.2423 38.4717 81.439 38.255C81.6357 38.035 81.7873 37.7683 81.894 37.455C82.0007 37.1383 82.054 36.7817 82.054 36.385Z" fill="white"/>
<path d="M88.9263 38.965V33.805H86.9513C86.9113 34.515 86.8563 35.145 86.7863 35.695C86.7196 36.245 86.6413 36.7283 86.5513 37.145C86.4613 37.5617 86.3613 37.9183 86.2513 38.215C86.1413 38.5117 86.0229 38.7617 85.8963 38.965H88.9263ZM91.4013 38.965V41.335C91.4013 41.4516 91.3613 41.545 91.2813 41.615C91.2046 41.685 91.1029 41.72 90.9763 41.72H90.1663V40H84.8563V41.335C84.8563 41.4516 84.8163 41.545 84.7363 41.615C84.6596 41.685 84.5579 41.72 84.4313 41.72H83.6213V38.965H84.4113C84.5046 38.915 84.5963 38.835 84.6863 38.725C84.7796 38.615 84.8696 38.46 84.9563 38.26C85.0429 38.06 85.1246 37.8067 85.2013 37.5C85.2813 37.1933 85.3529 36.82 85.4163 36.38C85.4796 35.9367 85.5329 35.4183 85.5763 34.825C85.6229 34.2317 85.6579 33.5467 85.6813 32.77H90.2763V38.965H91.4013Z" fill="white"/>
<path d="M102.704 32.77V40H101.519V35.33C101.519 35.1433 101.529 34.9417 101.549 34.725L99.3641 38.83C99.2607 39.0267 99.1024 39.125 98.8891 39.125H98.6991C98.4857 39.125 98.3274 39.0267 98.2241 38.83L96.0141 34.71C96.0241 34.82 96.0324 34.9283 96.0391 35.035C96.0458 35.1417 96.0491 35.24 96.0491 35.33V40H94.8641V32.77H95.8791C95.9391 32.77 95.9907 32.7717 96.0341 32.775C96.0774 32.7783 96.1157 32.7866 96.1491 32.8C96.1857 32.8133 96.2174 32.835 96.2441 32.865C96.2741 32.895 96.3024 32.935 96.3291 32.985L98.4941 37C98.5507 37.1067 98.6024 37.2167 98.6491 37.33C98.6991 37.4433 98.7474 37.56 98.7941 37.68C98.8408 37.5567 98.8891 37.4383 98.9391 37.325C98.9891 37.2083 99.0424 37.0967 99.0991 36.99L101.234 32.985C101.261 32.935 101.289 32.895 101.319 32.865C101.349 32.835 101.381 32.8133 101.414 32.8C101.451 32.7866 101.491 32.7783 101.534 32.775C101.577 32.7717 101.629 32.77 101.689 32.77H102.704Z" fill="white"/>
<path d="M105.667 33.84V35.845H108.197V36.88H105.667V38.925H108.877V40H104.317V32.77H108.877V33.84H105.667Z" fill="white"/>
<path d="M115.119 33.875H112.939V40H111.594V33.875H109.414V32.77H115.119V33.875Z" fill="white"/>
<path d="M122.16 32.77V40H120.81V35.47C120.81 35.3 120.814 35.1217 120.82 34.935C120.83 34.7483 120.85 34.55 120.88 34.34C120.814 34.5267 120.74 34.7 120.66 34.86C120.584 35.0167 120.509 35.155 120.435 35.275L117.67 39.585C117.64 39.635 117.604 39.685 117.56 39.735C117.52 39.785 117.475 39.83 117.425 39.87C117.375 39.9067 117.32 39.9383 117.26 39.965C117.2 39.9883 117.139 40 117.075 40H116.065V32.77H117.415V37.3C117.415 37.47 117.41 37.65 117.4 37.84C117.394 38.0267 117.375 38.225 117.345 38.435C117.412 38.2483 117.484 38.075 117.56 37.915C117.64 37.755 117.719 37.615 117.795 37.495L120.555 33.185C120.585 33.135 120.62 33.085 120.66 33.035C120.704 32.985 120.75 32.9417 120.8 32.905C120.85 32.865 120.904 32.8333 120.96 32.81C121.02 32.7833 121.084 32.77 121.15 32.77H122.16Z" fill="white"/>
<path d="M123.355 33.45C123.635 33.21 123.967 33.0233 124.35 32.89C124.737 32.7567 125.165 32.69 125.635 32.69C126.025 32.69 126.377 32.7367 126.69 32.83C127.007 32.9233 127.275 33.055 127.495 33.225C127.715 33.3917 127.884 33.5917 128 33.825C128.12 34.055 128.18 34.3083 128.18 34.585C128.18 34.925 128.102 35.2333 127.945 35.51C127.792 35.7833 127.559 36.005 127.245 36.175C127.412 36.255 127.564 36.35 127.7 36.46C127.84 36.5667 127.959 36.6866 128.055 36.82C128.155 36.95 128.232 37.0917 128.285 37.245C128.342 37.3983 128.37 37.5617 128.37 37.735C128.37 38.0617 128.309 38.3667 128.185 38.65C128.065 38.9333 127.889 39.18 127.655 39.39C127.425 39.6 127.142 39.7667 126.805 39.89C126.469 40.01 126.084 40.07 125.65 40.07C125.397 40.07 125.149 40.0466 124.905 40C124.665 39.9566 124.435 39.8933 124.215 39.81C123.995 39.7267 123.789 39.6267 123.595 39.51C123.402 39.3933 123.23 39.2633 123.08 39.12L123.475 38.475C123.512 38.4283 123.555 38.39 123.605 38.36C123.659 38.3267 123.717 38.31 123.78 38.31C123.867 38.31 123.962 38.345 124.065 38.415C124.169 38.4817 124.294 38.5567 124.44 38.64C124.587 38.7233 124.76 38.8 124.96 38.87C125.164 38.9366 125.407 38.97 125.69 38.97C126.14 38.97 126.489 38.8733 126.735 38.68C126.982 38.4867 127.105 38.19 127.105 37.79C127.105 37.6267 127.072 37.48 127.005 37.35C126.939 37.22 126.844 37.11 126.72 37.02C126.597 36.93 126.447 36.8616 126.27 36.815C126.097 36.765 125.904 36.74 125.69 36.74H124.67L124.665 35.66H125.595C126.012 35.66 126.337 35.5783 126.57 35.415C126.807 35.2483 126.925 35.0083 126.925 34.695C126.925 34.4183 126.814 34.1983 126.59 34.035C126.37 33.8683 126.05 33.785 125.63 33.785C125.387 33.785 125.177 33.8117 125 33.865C124.827 33.9183 124.675 33.9767 124.545 34.04C124.419 34.1 124.31 34.1567 124.22 34.21C124.134 34.2633 124.055 34.29 123.985 34.29C123.919 34.29 123.862 34.2733 123.815 34.24C123.769 34.2067 123.725 34.1567 123.685 34.09L123.355 33.45Z" fill="white"/>
<path d="M135.676 32.77V40H134.326V36.84H130.931V40H129.581V32.77H130.931V35.88H134.326V32.77H135.676Z" fill="white"/>
<path d="M139.806 38.95C140.056 38.95 140.264 38.9233 140.431 38.87C140.601 38.8133 140.738 38.7367 140.841 38.64C140.944 38.5433 141.018 38.43 141.061 38.3C141.104 38.17 141.126 38.03 141.126 37.88C141.126 37.7167 141.104 37.5683 141.061 37.435C141.018 37.3017 140.944 37.19 140.841 37.1C140.738 37.0066 140.603 36.935 140.436 36.885C140.269 36.835 140.061 36.81 139.811 36.81H138.631V38.95H139.806ZM139.811 35.76C140.281 35.76 140.683 35.8117 141.016 35.915C141.353 36.0183 141.626 36.16 141.836 36.34C142.049 36.5167 142.206 36.7267 142.306 36.97C142.406 37.21 142.456 37.4683 142.456 37.745C142.456 38.085 142.396 38.3933 142.276 38.67C142.159 38.9467 141.988 39.185 141.761 39.385C141.534 39.5817 141.256 39.7333 140.926 39.84C140.599 39.9467 140.226 40 139.806 40H137.286V32.77H138.631V35.76H139.811ZM144.861 40H143.511V32.77H144.861V40Z" fill="white"/>
<path d="M152.35 40H151.01C150.917 40 150.842 39.9767 150.785 39.93C150.732 39.8833 150.689 39.83 150.655 39.77L148.98 36.995C148.954 37.0783 148.922 37.15 148.885 37.21L147.28 39.77C147.24 39.8267 147.194 39.88 147.14 39.93C147.09 39.9767 147.024 40 146.94 40H145.685L148.085 36.28L145.78 32.77H147.12C147.214 32.77 147.28 32.7833 147.32 32.81C147.364 32.8333 147.404 32.8733 147.44 32.93L149.085 35.58C149.119 35.4967 149.159 35.4133 149.205 35.33L150.715 32.955C150.752 32.8917 150.792 32.845 150.835 32.815C150.879 32.785 150.934 32.77 151 32.77H152.285L149.96 36.225L152.35 40Z" fill="white"/>
<path d="M161.711 32.77V40H160.361V35.47C160.361 35.3 160.364 35.1217 160.371 34.935C160.381 34.7483 160.401 34.55 160.431 34.34C160.364 34.5267 160.291 34.7 160.211 34.86C160.134 35.0167 160.059 35.155 159.986 35.275L157.221 39.585C157.191 39.635 157.154 39.685 157.111 39.735C157.071 39.785 157.026 39.83 156.976 39.87C156.926 39.9067 156.871 39.9383 156.811 39.965C156.751 39.9883 156.689 40 156.626 40H155.616V32.77H156.966V37.3C156.966 37.47 156.961 37.65 156.951 37.84C156.944 38.0267 156.926 38.225 156.896 38.435C156.963 38.2483 157.034 38.075 157.111 37.915C157.191 37.755 157.269 37.615 157.346 37.495L160.106 33.185C160.136 33.135 160.171 33.085 160.211 33.035C160.254 32.985 160.301 32.9417 160.351 32.905C160.401 32.865 160.454 32.8333 160.511 32.81C160.571 32.7833 160.634 32.77 160.701 32.77H161.711Z" fill="white"/>
<path d="M162.906 33.45C163.186 33.21 163.518 33.0233 163.901 32.89C164.288 32.7567 164.716 32.69 165.186 32.69C165.576 32.69 165.928 32.7367 166.241 32.83C166.558 32.9233 166.826 33.055 167.046 33.225C167.266 33.3917 167.434 33.5917 167.551 33.825C167.671 34.055 167.731 34.3083 167.731 34.585C167.731 34.925 167.653 35.2333 167.496 35.51C167.343 35.7833 167.109 36.005 166.796 36.175C166.963 36.255 167.114 36.35 167.251 36.46C167.391 36.5667 167.509 36.6866 167.606 36.82C167.706 36.95 167.783 37.0917 167.836 37.245C167.893 37.3983 167.921 37.5617 167.921 37.735C167.921 38.0617 167.859 38.3667 167.736 38.65C167.616 38.9333 167.439 39.18 167.206 39.39C166.976 39.6 166.693 39.7667 166.356 39.89C166.019 40.01 165.634 40.07 165.201 40.07C164.948 40.07 164.699 40.0466 164.456 40C164.216 39.9566 163.986 39.8933 163.766 39.81C163.546 39.7267 163.339 39.6267 163.146 39.51C162.953 39.3933 162.781 39.2633 162.631 39.12L163.026 38.475C163.063 38.4283 163.106 38.39 163.156 38.36C163.209 38.3267 163.268 38.31 163.331 38.31C163.418 38.31 163.513 38.345 163.616 38.415C163.719 38.4817 163.844 38.5567 163.991 38.64C164.138 38.7233 164.311 38.8 164.511 38.87C164.714 38.9366 164.958 38.97 165.241 38.97C165.691 38.97 166.039 38.8733 166.286 38.68C166.533 38.4867 166.656 38.19 166.656 37.79C166.656 37.6267 166.623 37.48 166.556 37.35C166.489 37.22 166.394 37.11 166.271 37.02C166.148 36.93 165.998 36.8616 165.821 36.815C165.648 36.765 165.454 36.74 165.241 36.74H164.221L164.216 35.66H165.146C165.563 35.66 165.888 35.5783 166.121 35.415C166.358 35.2483 166.476 35.0083 166.476 34.695C166.476 34.4183 166.364 34.1983 166.141 34.035C165.921 33.8683 165.601 33.785 165.181 33.785C164.938 33.785 164.728 33.8117 164.551 33.865C164.378 33.9183 164.226 33.9767 164.096 34.04C163.969 34.1 163.861 34.1567 163.771 34.21C163.684 34.2633 163.606 34.29 163.536 34.29C163.469 34.29 163.413 34.2733 163.366 34.24C163.319 34.2067 163.276 34.1567 163.236 34.09L162.906 33.45Z" fill="white"/>
<path d="M173.672 38.965V33.805H171.697C171.657 34.515 171.602 35.145 171.532 35.695C171.466 36.245 171.387 36.7283 171.297 37.145C171.207 37.5617 171.107 37.9183 170.997 38.215C170.887 38.5117 170.769 38.7617 170.642 38.965H173.672ZM176.147 38.965V41.335C176.147 41.4516 176.107 41.545 176.027 41.615C175.951 41.685 175.849 41.72 175.722 41.72H174.912V40H169.602V41.335C169.602 41.4516 169.562 41.545 169.482 41.615C169.406 41.685 169.304 41.72 169.177 41.72H168.367V38.965H169.157C169.251 38.915 169.342 38.835 169.432 38.725C169.526 38.615 169.616 38.46 169.702 38.26C169.789 38.06 169.871 37.8067 169.947 37.5C170.027 37.1933 170.099 36.82 170.162 36.38C170.226 35.9367 170.279 35.4183 170.322 34.825C170.369 34.2317 170.404 33.5467 170.427 32.77H175.022V38.965H176.147Z" fill="white"/>
<path d="M178.529 33.84V35.845H181.059V36.88H178.529V38.925H181.739V40H177.179V32.77H181.739V33.84H178.529Z" fill="white"/>
<path d="M188.76 40H187.405V33.805H185.43C185.384 34.7117 185.317 35.4967 185.23 36.16C185.147 36.82 185.045 37.3833 184.925 37.85C184.809 38.3133 184.674 38.69 184.52 38.98C184.37 39.27 184.205 39.4967 184.025 39.66C183.845 39.82 183.652 39.93 183.445 39.99C183.239 40.0467 183.022 40.075 182.795 40.075C182.555 40.075 182.38 40.0533 182.27 40.01C182.16 39.9667 182.105 39.9033 182.105 39.82V38.98H182.49C182.577 38.98 182.664 38.97 182.75 38.95C182.84 38.93 182.929 38.8883 183.015 38.825C183.105 38.7583 183.192 38.6633 183.275 38.54C183.362 38.4167 183.444 38.2517 183.52 38.045C183.6 37.835 183.674 37.5783 183.74 37.275C183.811 36.9717 183.872 36.6067 183.925 36.18C183.982 35.7533 184.031 35.26 184.07 34.7C184.114 34.1367 184.145 33.4933 184.165 32.77H188.76V40Z" fill="white"/>
<path d="M196.467 32.77V40H195.117V35.47C195.117 35.3 195.12 35.1217 195.127 34.935C195.137 34.7483 195.157 34.55 195.187 34.34C195.12 34.5267 195.047 34.7 194.967 34.86C194.89 35.0167 194.815 35.155 194.742 35.275L191.977 39.585C191.947 39.635 191.91 39.685 191.867 39.735C191.827 39.785 191.782 39.83 191.732 39.87C191.682 39.9067 191.627 39.9383 191.567 39.965C191.507 39.9883 191.445 40 191.382 40H190.372V32.77H191.722V37.3C191.722 37.47 191.717 37.65 191.707 37.84C191.7 38.0267 191.682 38.225 191.652 38.435C191.719 38.2483 191.79 38.075 191.867 37.915C191.947 37.755 192.025 37.615 192.102 37.495L194.862 33.185C194.892 33.135 194.927 33.085 194.967 33.035C195.01 32.985 195.057 32.9417 195.107 32.905C195.157 32.865 195.21 32.8333 195.267 32.81C195.327 32.7833 195.39 32.77 195.457 32.77H196.467Z" fill="white"/>
<path d="M204.172 32.77V40H202.822V35.47C202.822 35.3 202.825 35.1217 202.832 34.935C202.842 34.7483 202.862 34.55 202.892 34.34C202.825 34.5267 202.752 34.7 202.672 34.86C202.595 35.0167 202.52 35.155 202.447 35.275L199.682 39.585C199.652 39.635 199.615 39.685 199.572 39.735C199.532 39.785 199.487 39.83 199.437 39.87C199.387 39.9067 199.332 39.9383 199.272 39.965C199.212 39.9883 199.15 40 199.087 40H198.077V32.77H199.427V37.3C199.427 37.47 199.422 37.65 199.412 37.84C199.405 38.0267 199.387 38.225 199.357 38.435C199.424 38.2483 199.495 38.075 199.572 37.915C199.652 37.755 199.73 37.615 199.807 37.495L202.567 33.185C202.597 33.135 202.632 33.085 202.672 33.035C202.715 32.985 202.762 32.9417 202.812 32.905C202.862 32.865 202.915 32.8333 202.972 32.81C203.032 32.7833 203.095 32.77 203.162 32.77H204.172ZM201.187 31.725C201.31 31.725 201.414 31.7133 201.497 31.69C201.58 31.6667 201.647 31.6267 201.697 31.57C201.747 31.51 201.782 31.43 201.802 31.33C201.822 31.23 201.832 31.1033 201.832 30.95H202.562C202.649 30.95 202.712 30.9867 202.752 31.06C202.795 31.1333 202.817 31.2133 202.817 31.3C202.817 31.47 202.779 31.62 202.702 31.75C202.625 31.88 202.515 31.9883 202.372 32.075C202.229 32.1617 202.057 32.2283 201.857 32.275C201.657 32.3183 201.434 32.34 201.187 32.34C200.94 32.34 200.717 32.3183 200.517 32.275C200.317 32.2283 200.145 32.1617 200.002 32.075C199.859 31.9883 199.749 31.88 199.672 31.75C199.595 31.62 199.557 31.47 199.557 31.3C199.557 31.2133 199.577 31.1333 199.617 31.06C199.66 30.9867 199.725 30.95 199.812 30.95H200.542C200.542 31.1033 200.552 31.23 200.572 31.33C200.592 31.43 200.627 31.51 200.677 31.57C200.727 31.6267 200.792 31.6667 200.872 31.69C200.955 31.7133 201.06 31.725 201.187 31.725Z" fill="white"/>
</svg>
